<?xml version="1.0" standalone="no"?>
<!DOCTYPE svg PUBLIC "-//W3C//DTD SVG 20010904//EN"
 "http://www.w3.org/TR/2001/REC-SVG-20010904/DTD/svg10.dtd">
<svg version="1.0" xmlns="http://www.w3.org/2000/svg"
 width="528.000000pt" height="543.000000pt" viewBox="0 0 528.000000 543.000000"
 preserveAspectRatio="xMidYMid meet">
<metadata>
Created by potrace 1.16, written by Peter Selinger 2001-2019
</metadata>
<g transform="translate(0.000000,543.000000) scale(0.100000,-0.100000)"
fill="#000000" stroke="none">
<path d="M2417 4999 c-94 -14 -191 -47 -305 -104 -223 -113 -399 -280 -494
-470 -30 -59 -72 -184 -65 -191 3 -3 19 25 37 63 67 146 83 173 134 234 136
165 356 307 581 375 77 23 109 27 215 28 163 1 251 -22 425 -109 153 -76 231
-133 341 -248 81 -83 88 -95 179 -290 15 -32 29 -56 31 -54 7 7 -37 139 -64
192 -147 291 -488 533 -813 575 -86 11 -122 11 -202 -1z"/>
<path d="M1010 4564 c-136 -23 -194 -43 -305 -108 -92 -54 -231 -192 -272
-271 -47 -92 -50 -117 -5 -48 48 73 145 170 222 223 165 112 333 157 522 138
76 -7 103 -6 124 4 42 20 40 36 -3 36 -21 1 -54 6 -73 12 -39 11 -173 21 -210
14z"/>
<path d="M3870 4560 c-25 -5 -69 -13 -98 -16 -57 -7 -63 -21 -18 -42 21 -10
48 -11 124 -4 191 19 356 -26 526 -141 72 -49 162 -138 211 -209 23 -33 34
-44 30 -28 -37 132 -228 315 -410 393 -102 44 -271 66 -365 47z"/>
<path d="M301 3451 c65 -136 209 -308 385 -461 60 -52 126 -112 148 -133 38
-37 40 -38 58 -20 18 18 15 21 -99 113 -214 173 -351 317 -496 520 -13 19 -12
14 4 -19z"/>
<path d="M4734 3448 c-91 -146 -264 -326 -479 -499 l-116 -93 22 -20 c15 -15
23 -17 26 -9 2 7 48 50 101 95 129 109 312 295 366 372 47 66 121 196 112 196
-3 0 -18 -19 -32 -42z"/>
<path d="M3619 3148 c-63 -124 -187 -277 -324 -400 -93 -84 -405 -338 -537
-437 l-58 -43 25 -20 25 -19 36 35 c21 20 85 73 142 119 318 248 425 348 561
521 83 106 103 140 141 235 24 62 18 67 -11 9z"/>
<path d="M1410 3168 c0 -33 73 -162 143 -253 133 -171 257 -288 541 -510 76
-59 154 -124 173 -143 33 -33 35 -33 54 -16 11 10 18 21 17 24 -2 4 -68 58
-148 120 -462 360 -576 470 -722 695 -32 49 -58 87 -58 83z"/>
<path d="M992 2644 c-106 -98 -204 -216 -258 -312 -59 -103 -56 -112 7 -21 65
94 160 202 222 250 93 74 158 64 269 -40 84 -79 147 -155 201 -243 20 -34 37
-58 37 -54 0 14 -61 129 -99 186 -37 57 -225 257 -272 291 l-26 18 -81 -75z"/>
<path d="M3865 2619 c-123 -120 -199 -215 -249 -315 -50 -100 -45 -102 14 -6
30 47 91 123 148 181 125 129 175 151 260 116 47 -20 192 -169 256 -263 53
-77 70 -89 38 -25 -53 102 -212 291 -316 377 l-46 37 -105 -102z"/>
<path d="M2425 2051 c-198 -172 -343 -347 -420 -506 -59 -123 -66 -159 -11
-55 87 162 266 371 413 482 52 40 61 43 117 43 53 0 67 -4 111 -34 129 -89
333 -324 423 -486 43 -79 30 -31 -18 65 -56 110 -128 207 -242 325 -102 106
-258 245 -274 245 -5 -1 -49 -36 -99 -79z"/>
<path d="M3437 1561 c54 -104 174 -212 290 -262 111 -47 265 -61 380 -34 175
41 311 143 403 300 20 34 14 30 -40 -28 -146 -158 -331 -236 -534 -225 -195
11 -372 105 -500 268 l-28 35 29 -54z"/>
<path d="M540 1565 c93 -158 216 -252 388 -296 141 -36 296 -17 440 53 78 38
203 157 241 228 l23 45 -47 -53 c-146 -163 -325 -239 -538 -230 -182 9 -328
78 -459 216 -58 62 -67 69 -48 37z"/>
<path d="M3235 712 c-102 -162 -307 -311 -505 -368 -99 -28 -309 -26 -413 4
-194 56 -390 195 -492 350 -32 49 -45 50 -19 0 82 -159 245 -308 415 -378 210
-87 465 -79 662 21 146 74 292 221 366 367 30 60 22 61 -14 4z"/>
</g>
</svg>
