<?xml version="1.0" encoding="utf-8"?>
<!-- Generator: Adobe Illustrator 23.0.1, SVG Export Plug-In . SVG Version: 6.00 Build 0)  -->
<svg version="1.1" id="Layer_1" xmlns="http://www.w3.org/2000/svg" xmlns:xlink="http://www.w3.org/1999/xlink" x="0px" y="0px"
	 viewBox="0 0 1280 1280" style="enable-background:new 0 0 1280 1280;" xml:space="preserve">
<style type="text/css">
	.st0{fill:#FFFFFF;stroke:#FFFFFF;stroke-miterlimit:10;}
	.st1{fill:#FFFFFF;stroke:#FFFFFF;stroke-width:3.3177;stroke-miterlimit:10;}
	.st2{fill:#FFFFFF;stroke:#FFFFFF;stroke-width:3.7659;stroke-miterlimit:10;}
</style>
<g>
	
		<image style="overflow:visible;opacity:0.7;" width="995" height="381" xlink:href="4D1AE1B4.png"  transform="matrix(1 0 0 1 131 453)">
	</image>
	<g>
		<g>
			<g>
				<g>
					<g>
						<g>
							<path class="st0" d="M577.3,539.9H630c10.4,0,18.8,2.9,25.2,8.8c6.4,5.9,9.6,14.1,9.6,24.8c0,9.2-2.8,17.1-8.5,23.9
								s-14.5,10.2-26.3,10.2h-36.9v49.6h-15.9L577.3,539.9L577.3,539.9z M639.2,556.1c-3.5-1.7-8.3-2.5-14.5-2.5h-31.6v40.6h31.6
								c7.1,0,12.9-1.5,17.4-4.5c4.4-3,6.7-8.4,6.7-16C648.8,565,645.6,559.1,639.2,556.1z"/>
							<path class="st0" d="M781.4,556.7c7.8,10.4,11.7,23.7,11.7,39.8c0,17.5-4.4,32.1-13.3,43.7c-10.4,13.6-25.3,20.4-44.6,20.4
								c-18,0-32.2-6-42.5-17.9c-9.2-11.5-13.8-26-13.8-43.6c0-15.9,3.9-29.4,11.8-40.7c10.1-14.5,25.1-21.7,44.9-21.7
								C756.1,536.7,771.4,543.4,781.4,556.7z M767.4,631.4c6.3-10,9.4-21.6,9.4-34.6c0-13.8-3.6-24.9-10.8-33.3
								c-7.2-8.4-17.1-12.6-29.6-12.6c-12.1,0-22,4.2-29.7,12.5s-11.5,20.6-11.5,36.8c0,13,3.3,23.9,9.9,32.8
								c6.6,8.9,17.2,13.4,32,13.4C751,646.4,761.1,641.4,767.4,631.4z"/>
							<path class="st0" d="M813.5,539.9h85.5v14.4h-70v35.6h64.7v13.6h-64.7v39.8h71.2v14h-86.7L813.5,539.9L813.5,539.9z"/>
							<path class="st0" d="M1006.3,539.9v14h-39.5v103.3h-16.1V553.9h-39.5v-14L1006.3,539.9L1006.3,539.9z"/>
							<path class="st0" d="M1031.2,619.3c0.4,6.7,1.9,12,4.7,16.2c5.3,7.8,14.6,11.7,27.8,11.7c6,0,11.4-0.8,16.3-2.5
								c9.5-3.3,14.2-9.2,14.2-17.7c0-6.4-2-10.9-6-13.7c-4-2.7-10.4-5-19-6.9l-15.9-3.6c-10.4-2.3-17.7-4.9-22-7.7
								c-7.5-4.9-11.2-12.2-11.2-22c0-10.5,3.6-19.2,10.9-25.9c7.3-6.8,17.6-10.1,31-10.1c12.3,0,22.7,3,31.3,8.9
								c8.6,5.9,12.9,15.4,12.9,28.5h-14.9c-0.8-6.3-2.5-11.1-5.1-14.5c-4.8-6.1-13.1-9.2-24.7-9.2c-9.4,0-16.1,2-20.2,5.9
								c-4.1,3.9-6.2,8.5-6.2,13.7c0,5.8,2.4,10,7.2,12.6c3.1,1.7,10.2,3.8,21.3,6.4l16.4,3.8c7.9,1.8,14.1,4.3,18.4,7.4
								c7.4,5.5,11.2,13.4,11.2,23.9c0,13-4.7,22.3-14.2,27.8c-9.4,5.6-20.4,8.4-32.9,8.4c-14.6,0-26-3.7-34.2-11.2
								c-8.3-7.4-12.3-17.4-12.1-30.1L1031.2,619.3L1031.2,619.3z"/>
						</g>
						<g>
							<path class="st0" d="M602,712.1c2.6,1.9,4,4,4.3,6.3h-4.9c-0.6-1.8-1.7-3.2-3.3-4.3s-4-1.6-7-1.6c-3.7,0-6.6,1-8.9,2.9
								c-2.3,1.9-3.4,4.9-3.4,8.9c0,3.3,1,5.9,3.1,8c2,2,5.1,3,9.1,3c3.7,0,6.5-1.1,8.5-3.2c1-1.1,1.8-2.6,2.3-4.5h4.9
								c-0.4,2.9-1.9,5.4-4.4,7.4c-3,2.4-7,3.6-12,3.6c-4.3,0-8-1-10.9-3c-3.9-2.6-5.8-6.6-5.8-12c0-4.1,1.5-7.5,4.4-10.1
								c3.1-2.9,7.5-4.3,13-4.3C595.7,709.3,599.4,710.2,602,712.1z"/>
							<path class="st0" d="M618.3,710.1v17.3c0,2,0.5,3.7,1.5,5.1c1.5,2,4,3,7.6,3c4.3,0,7.2-1.1,8.7-3.3c0.8-1.2,1.2-2.8,1.2-4.8
								v-17.3h5.1v15.7c0,3.4-0.6,6.1-1.8,7.9c-2.3,3.4-6.5,5.1-12.8,5.1c-6.3,0-10.6-1.7-12.8-5.1c-1.2-1.8-1.8-4.5-1.8-7.9v-15.7
								H618.3z"/>
							<path class="st0" d="M650.3,710.1h5v24.6h18.9v3.3h-23.9L650.3,710.1L650.3,710.1z"/>
							<path class="st0" d="M702.5,710.1v3.3h-12.5V738h-5.1v-24.6h-12.5v-3.3H702.5z"/>
							<path class="st0" d="M712.6,710.1v17.3c0,2,0.5,3.7,1.5,5.1c1.5,2,4,3,7.6,3c4.3,0,7.2-1.1,8.7-3.3c0.8-1.2,1.2-2.8,1.2-4.8
								v-17.3h5.1v15.7c0,3.4-0.6,6.1-1.8,7.9c-2.3,3.4-6.5,5.1-12.8,5.1c-6.3,0-10.6-1.7-12.8-5.1c-1.2-1.8-1.8-4.5-1.8-7.9v-15.7
								H712.6z"/>
							<path class="st0" d="M745.2,710.1h17.2c2.8,0,5.2,0.3,7,0.9c3.5,1.2,5.3,3.4,5.3,6.6c0,1.7-0.5,3-1.4,4.1s-2.2,1.9-3.9,2.6
								c1.5,0.4,2.5,1,3.3,1.8s1.2,1.9,1.2,3.5l0.2,3.8c0,1.1,0.2,1.9,0.4,2.4c0.3,0.9,0.8,1.5,1.6,1.7v0.6h-6.2
								c-0.2-0.2-0.3-0.5-0.4-0.9c-0.1-0.4-0.2-1.1-0.3-2.2l-0.3-4.7c-0.1-1.8-1-3-2.7-3.7c-1-0.3-2.5-0.5-4.5-0.5h-11.5v12h-5
								L745.2,710.1L745.2,710.1z M761.9,722.9c2.4,0,4.2-0.3,5.6-1.1s2.1-2,2.1-3.8c0-2-1-3.3-2.9-4.1c-1-0.4-2.4-0.6-4.1-0.6
								h-12.3v9.5L761.9,722.9L761.9,722.9z"/>
							<path class="st0" d="M782.6,710.1h27.2v3.4h-22.2v8.5H808v3.2h-20.6v9.5h22.6v3.3h-27.5V710.1z"/>
							<path class="st0" d="M857.8,712.1c2.6,1.9,4,4,4.3,6.3h-4.9c-0.6-1.8-1.7-3.2-3.3-4.3s-4-1.6-7-1.6c-3.7,0-6.6,1-8.9,2.9
								c-2.3,1.9-3.4,4.9-3.4,8.9c0,3.3,1,5.9,3.1,8c2,2,5.1,3,9.1,3c3.7,0,6.5-1.1,8.5-3.2c1-1.1,1.8-2.6,2.3-4.5h4.9
								c-0.4,2.9-1.9,5.4-4.4,7.4c-3,2.4-7,3.6-12,3.6c-4.3,0-8-1-10.9-3c-3.9-2.6-5.8-6.6-5.8-12c0-4.1,1.5-7.5,4.4-10.1
								c3.1-2.9,7.5-4.3,13-4.3C851.6,709.3,855.2,710.2,857.8,712.1z"/>
							<path class="st0" d="M869.3,710.1h17.2c2.8,0,5.2,0.3,7,0.9c3.5,1.2,5.3,3.4,5.3,6.6c0,1.7-0.5,3-1.4,4.1s-2.2,1.9-3.9,2.6
								c1.5,0.4,2.5,1,3.3,1.8s1.2,1.9,1.2,3.5l0.2,3.8c0,1.1,0.2,1.9,0.4,2.4c0.3,0.9,0.8,1.5,1.6,1.7v0.6H894
								c-0.2-0.2-0.3-0.5-0.4-0.9c-0.1-0.4-0.2-1.1-0.3-2.2l-0.3-4.7c-0.1-1.8-1-3-2.7-3.7c-1-0.3-2.5-0.5-4.5-0.5h-11.5v12h-5
								L869.3,710.1L869.3,710.1z M886,722.9c2.4,0,4.2-0.3,5.6-1.1s2.1-2,2.1-3.8c0-2-1-3.3-2.9-4.1c-1-0.4-2.4-0.6-4.1-0.6h-12.3
								v9.5L886,722.9L886,722.9z"/>
							<path class="st0" d="M906.7,710.1h27.2v3.4h-22.2v8.5h20.6v3.2h-20.6v9.5h22.6v3.3h-27.5V710.1z"/>
							<path class="st0" d="M951.6,710.1h5.7l13.5,27.9h-5.5l-3.8-8.4h-14.7l-4,8.4h-5.2L951.6,710.1z M959.9,726.5l-5.7-12.3
								l-6,12.3H959.9z"/>
							<path class="st0" d="M998.7,710.1v3.3h-12.5V738H981v-24.6h-12.5v-3.3H998.7z"/>
							<path class="st0" d="M1033.1,714.1c2.5,2.5,3.7,5.6,3.7,9.5c0,4.2-1.4,7.6-4.2,10.4c-3.3,3.3-8,4.9-14.2,4.9
								c-5.7,0-10.2-1.4-13.5-4.3c-2.9-2.7-4.4-6.2-4.4-10.4c0-3.8,1.3-7,3.8-9.7c3.2-3.5,8-5.2,14.3-5.2
								C1025.1,709.3,1029.9,710.9,1033.1,714.1z M1028.7,731.8c2-2.4,3-5.1,3-8.2c0-3.3-1.2-5.9-3.4-7.9c-2.3-2-5.4-3-9.4-3
								c-3.8,0-7,1-9.4,3s-3.7,4.9-3.7,8.8c0,3.1,1,5.7,3.1,7.8c2.1,2.1,5.5,3.2,10.2,3.2C1023.5,735.4,1026.7,734.2,1028.7,731.8z"
								/>
							<path class="st0" d="M1043.4,710.1h17.2c2.8,0,5.2,0.3,7,0.9c3.5,1.2,5.3,3.4,5.3,6.6c0,1.7-0.5,3-1.4,4.1s-2.2,1.9-3.9,2.6
								c1.4,0.4,2.6,1,3.3,1.8s1.2,1.9,1.2,3.5l0.2,3.8c0.1,1.1,0.2,1.9,0.4,2.4c0.3,0.9,0.8,1.5,1.6,1.7v0.6h-6.2
								c-0.2-0.2-0.3-0.5-0.4-0.9c-0.1-0.4-0.2-1.1-0.3-2.2l-0.3-4.7c-0.1-1.8-1-3-2.7-3.7c-1-0.3-2.5-0.5-4.5-0.5h-11.5v12h-5.1
								L1043.4,710.1L1043.4,710.1z M1060.1,722.9c2.4,0,4.2-0.3,5.6-1.1s2.1-2,2.1-3.8c0-2-1-3.3-2.9-4.1c-1-0.4-2.4-0.6-4.1-0.6
								h-12.3v9.5L1060.1,722.9L1060.1,722.9z"/>
							<path class="st0" d="M1083.6,729c0.1,1.6,0.6,2.9,1.5,3.9c1.7,1.8,4.6,2.8,8.8,2.8c1.9,0,3.6-0.2,5.2-0.6
								c3-0.8,4.5-2.2,4.5-4.2c0-1.5-0.6-2.6-1.9-3.3c-1.3-0.6-3.3-1.2-6-1.7l-5.1-0.9c-3.3-0.6-5.6-1.2-7-1.8
								c-2.4-1.2-3.6-2.9-3.6-5.2c0-2.5,1.2-4.6,3.5-6.2c2.3-1.6,5.6-2.4,9.8-2.4c3.9,0,7.2,0.7,9.9,2.1s4.1,3.7,4.1,6.8h-4.7
								c-0.3-1.5-0.8-2.6-1.6-3.4c-1.5-1.5-4.2-2.2-7.8-2.2c-3,0-5.1,0.5-6.4,1.4c-1.3,0.9-1.9,2-1.9,3.3c0,1.4,0.8,2.4,2.3,3
								c1,0.4,3.3,0.9,6.8,1.5l5.2,0.9c2.5,0.4,4.5,1,5.8,1.8c2.4,1.3,3.6,3.2,3.6,5.7c0,3.1-1.5,5.3-4.5,6.6s-6.5,2-10.5,2
								c-4.6,0-8.3-0.9-10.9-2.7c-2.6-1.8-3.9-4.2-3.8-7.2L1083.6,729L1083.6,729z"/>
						</g>
					</g>
					<g>
						<g>
							<path class="st1" d="M272.6,537.5c-2-4.9-4.8-9.6-8.1-13.8c-2.4-3.1-7.1-2.7-8.9,0.8c0,0,0,0,0,0.1c-0.2,0.3-0.3,0.7-0.5,1
								c-0.8,1.8-0.6,3.9,0.6,5.5c3.6,4.6,6.4,9.7,7.9,15.4c2.6,10.2-0.1,21.3-4.8,30.7c-1.9,3.7-4,7.2-6.4,10.5
								c-1.1,1.5-1.4,3.5-0.8,5.2c0,0.1,0.1,0.1,0.1,0.2c1.6,4.2,7.3,4.9,9.9,1.3C273.4,577.7,280.7,557,272.6,537.5z M253.3,674.3
								c-6.2-17-18.6-30.2-32.2-41.7c3.4-2.7,6.7-5.3,10.1-8c2.1-1.7,2.7-4.7,1.4-7.1l-0.1-0.1c-1.7-3-5.7-3.8-8.4-1.6
								c-4,3.2-8,6.4-11.9,9.5c-9.8-7.8-19.8-15.5-28.7-24.3c-15-14.8-29.6-37.2-21.5-58.9c3.5-9.3,11.1-17.5,19.2-23.2
								c9.1-6.4,19.9-10.4,31.1-10.6c4.8,0.1,9.5,0.9,14.1,2.3c2.5,0.8,5.2-0.4,6.5-2.6c0,0,0-0.1,0.1-0.1c1.8-3.1,0.2-7.1-3.2-8.1
								c-5.5-1.7-11.2-2.6-16.9-2.8c-0.2,0-0.4,0-0.5,0c-0.2,0-0.4,0-0.5,0c-14.6,0.4-28.6,6-40.1,14.9c-9.5,7.5-17.5,17.4-21.3,29
								c-4.1,12.4-1.9,25.8,3.2,37.6c10,23.3,30.4,38.8,49.6,54.2c-6.6,5.6-12.9,11.5-18.4,18.2c-12.9,15.8-21.1,36.4-16,57
								c4.9,19.6,23.2,33.4,43.3,33.4h0.1c11.1,0,21.9-4.3,30.2-11.6C257.9,716,260.1,693,253.3,674.3z M245,702.6
								c-1.6,7.9-5.5,14.9-11.8,20c-6,4.8-13.6,7.3-21.1,7.3h-0.1c-8.4,0-16.9-3.3-23.2-9.2c-12.3-11.6-12.4-30.2-6.3-45.1
								c5.9-14.5,17.6-25.8,29.5-35.7c6.1,5.1,12.1,10.5,17.3,16.6C240.3,668.9,248.3,685.9,245,702.6z"/>
						</g>
						<g>
							<path class="st1" d="M378.5,587.6c-2.4-3.3-4.5-6.8-6.4-10.5c-4.7-9.3-7.4-20.5-4.8-30.7c1.5-5.7,4.3-10.8,7.9-15.4
								c1.2-1.6,1.5-3.7,0.6-5.5c-0.2-0.3-0.3-0.7-0.5-1c0,0,0,0,0-0.1c-1.8-3.5-6.5-3.8-8.9-0.8c-3.3,4.2-6,8.9-8.1,13.8
								c-8.1,19.6-0.8,40.2,11,56.8c2.6,3.7,8.3,3,9.9-1.3c0-0.1,0-0.1,0.1-0.2C379.9,591.1,379.6,589.1,378.5,587.6z M477.4,578.5
								c5.1-11.8,7.3-25.1,3.2-37.6c-3.8-11.6-11.8-21.5-21.3-29c-11.5-9-25.4-14.6-40-14.9c-0.2,0-0.4,0-0.5,0c-0.2,0-0.4,0-0.5,0
								c-5.7,0.1-11.4,1.1-16.9,2.8c-3.4,1-5,5-3.2,8.1c0,0,0,0.1,0.1,0.1c1.3,2.3,4,3.4,6.5,2.6c4.6-1.4,9.3-2.2,14.1-2.3
								c11.2,0.2,22,4.2,31.1,10.6c8.1,5.7,15.7,13.9,19.2,23.2c8.1,21.6-6.5,44-21.5,58.9c-8.9,8.8-18.9,16.5-28.7,24.3
								c-4-3.2-8-6.3-11.9-9.5c-2.7-2.2-6.7-1.4-8.4,1.6l-0.1,0.1c-1.4,2.4-0.8,5.4,1.4,7.1c3.3,2.7,6.7,5.3,10,8
								c-13.6,11.5-26,24.7-32.2,41.7c-6.8,18.7-4.6,41.6,11,55.3c8.3,7.3,19.1,11.6,30.2,11.6h0.1c20.1,0,38.4-13.8,43.3-33.4
								c5.1-20.5-3.1-41.2-16-57c-5.5-6.7-11.8-12.6-18.4-18.2C447,617.3,467.4,601.7,477.4,578.5z M448.3,675.6
								c6.1,14.9,6,33.5-6.3,45.1c-6.3,5.9-14.8,9.2-23.2,9.2h-0.1c-7.5,0-15.1-2.5-21.1-7.3c-6.3-5-10.3-12-11.8-20
								c-3.3-16.7,4.8-33.7,15.6-46.1c5.3-6,11.2-11.5,17.3-16.6C430.8,649.8,442.4,661.1,448.3,675.6z"/>
						</g>
						<path class="st2" d="M401.5,547.7c-1.3-9.4-3.2-19.1-6.8-27.8c-6.4-15.6-17.9-28.4-31.7-38c-13.8-9.5-30.7-16.3-47.6-16.3
							c-14.6-0.2-29.3,5.3-41.7,12.7c-14,8.4-26.5,20.2-34.2,34.6c-4.4,8.2-6.8,17.1-8.6,26.2c-2,10.1-3.2,20.5-2.8,30.9
							c0.9,20.9,8.3,40.5,21.7,56.6c13.6,16.3,31.5,28.4,47.9,41.6c0.2,0.2,0.4,0.3,0.6,0.4c0.2,0.2,0.4,0.3,0.5,0.5
							c2.4,1.8,4.8,3.6,7.2,5.4c-15.9,12.6-30.8,26.5-39.8,44.7c-6,12.2-9.6,26-8.4,39.6c1.2,13.7,7.1,26.5,17.1,36
							c10.8,10.3,25.4,16.8,40.4,16.7c26.8,0.2,52.3-20.6,56.7-47.2c2.3-13.7-0.1-27.6-5.5-40.3c-5.5-13-14.4-24.3-24.4-34.2
							c-5.5-5.5-11.5-10.5-17.6-15.3c2.4-1.8,4.8-3.6,7.3-5.5c0.2-0.1,0.4-0.3,0.5-0.4c0.2-0.1,0.4-0.3,0.6-0.5
							c14.5-11.7,29.9-22.5,42.9-36c14.3-15,23.5-33.2,26-53.8C403.4,568.1,402.9,557.8,401.5,547.7z M353.3,722.2
							c11,20.2,12.6,46.3-4.5,63.5c-8.8,8.9-21,14.5-33.3,14.4c-22,0.2-42.8-17.4-45.9-39.5c-3.5-24.8,11.1-47.4,28.2-63.9
							c5.6-5.4,11.6-10.4,17.7-15.2C330.3,693.1,344.4,705.8,353.3,722.2z M391.3,572.3c-1.2,18.2-8.4,35.1-20.5,48.7
							c-13.3,14.9-29.8,26.3-45.2,38.7c-3.4,2.5-6.7,5-10.1,7.6c-3.4-2.5-6.7-5.1-10.1-7.6c-13.9-11.2-28.5-21.5-41-34.3
							c-12.9-13.1-21.6-29.1-24.1-47.5c-1.2-9.1-0.9-18.5,0.3-27.7c1.2-9,3-18.6,6.6-27c5.4-12.7,16.1-24.3,27.6-32.1
							c6.7-4.6,13.9-8.3,20.9-10.7c3.4-1.2,6.9-2.1,10.5-2.8c0.4-0.1,0.9-0.2,1.3-0.2c0.1,0,0.5-0.1,0.7-0.1c0.3,0,0.8-0.1,0.8-0.1
							c0.4,0,0.8-0.1,1.3-0.1c1.7-0.1,3.4-0.2,5.1-0.2c1.6,0,3.1,0.1,4.7,0.2c0.7,0.1,1.4,0.1,2.1,0.2c0,0,0.1,0,0.3,0
							c0.5,0.1,1,0.1,1.5,0.2c3.3,0.6,6.5,1.4,9.7,2.4c6.8,2.1,12.6,4.8,19,8.7c12.4,7.5,23,18,29.5,31.1c3.6,7.2,5.6,16,7.2,24.3
							C391.1,553.4,391.9,562.9,391.3,572.3z"/>
					</g>
				</g>
			</g>
		</g>
	</g>
</g>
</svg>
