<?xml version="1.0" encoding="utf-8"?>
<!-- Generator: Adobe Illustrator 23.0.1, SVG Export Plug-In . SVG Version: 6.00 Build 0)  -->
<svg version="1.1" id="Layer_1" xmlns="http://www.w3.org/2000/svg" xmlns:xlink="http://www.w3.org/1999/xlink" x="0px" y="0px"
	 viewBox="0 0 1280 1280" enable-background="new 0 0 1280 1280" xml:space="preserve">
<g>
	<g>
		<path fill="#FFFFFF" stroke="#FFFFFF" stroke-miterlimit="10" d="M577.28,539.93h52.76c10.43,0,18.84,2.94,25.22,8.82
			c6.39,5.88,9.58,14.14,9.58,24.78c0,9.15-2.85,17.12-8.54,23.9c-5.69,6.78-14.45,10.18-26.26,10.18h-36.87v49.56h-15.88V539.93z
			 M639.22,556.06c-3.51-1.65-8.33-2.47-14.45-2.47h-31.61v40.63h31.61c7.13,0,12.92-1.52,17.36-4.55
			c4.44-3.03,6.66-8.38,6.66-16.04C648.79,564.99,645.6,559.14,639.22,556.06z"/>
		<path fill="#FFFFFF" stroke="#FFFFFF" stroke-miterlimit="10" d="M781.37,556.69c7.77,10.38,11.65,23.65,11.65,39.83
			c0,17.51-4.44,32.06-13.33,43.66c-10.43,13.62-25.3,20.43-44.62,20.43c-18.04,0-32.22-5.96-42.54-17.88
			c-9.21-11.49-13.81-26.02-13.81-43.58c0-15.86,3.94-29.42,11.81-40.7c10.11-14.47,25.06-21.71,44.86-21.71
			C756.09,536.74,771.42,543.39,781.37,556.69z M767.36,631.36c6.25-10.03,9.38-21.56,9.38-34.6c0-13.78-3.61-24.87-10.81-33.28
			c-7.21-8.41-17.07-12.61-29.57-12.61c-12.13,0-22.03,4.16-29.69,12.49c-7.66,8.33-11.49,20.61-11.49,36.83
			c0,12.98,3.28,23.93,9.86,32.84c6.57,8.91,17.23,13.37,31.97,13.37C750.98,646.4,761.11,641.39,767.36,631.36z"/>
		<path fill="#FFFFFF" stroke="#FFFFFF" stroke-miterlimit="10" d="M813.45,539.93h85.48v14.37h-70v35.6h64.73v13.57h-64.73v39.75
			h71.19v13.97h-86.68V539.93z"/>
		<path fill="#FFFFFF" stroke="#FFFFFF" stroke-miterlimit="10" d="M1006.28,539.93v13.97h-39.51v103.28h-16.12V553.9h-39.51v-13.97
			H1006.28z"/>
		<path fill="#FFFFFF" stroke="#FFFFFF" stroke-miterlimit="10" d="M1031.18,619.35c0.37,6.65,1.94,12.05,4.71,16.2
			c5.27,7.77,14.55,11.65,27.85,11.65c5.96,0,11.39-0.85,16.28-2.55c9.47-3.3,14.21-9.2,14.21-17.72c0-6.39-2-10.93-5.99-13.65
			c-4.04-2.66-10.38-4.97-19-6.94l-15.88-3.59c-10.38-2.34-17.72-4.92-22.03-7.74c-7.45-4.9-11.17-12.21-11.17-21.95
			c0-10.54,3.64-19.18,10.93-25.94c7.29-6.76,17.61-10.14,30.97-10.14c12.29,0,22.73,2.97,31.33,8.9
			c8.59,5.93,12.89,15.42,12.89,28.45h-14.92c-0.8-6.28-2.5-11.09-5.11-14.45c-4.84-6.12-13.06-9.18-24.66-9.18
			c-9.37,0-16.1,1.97-20.19,5.91c-4.1,3.94-6.15,8.51-6.15,13.73c0,5.75,2.39,9.95,7.18,12.61c3.14,1.7,10.24,3.83,21.31,6.39
			l16.44,3.75c7.93,1.81,14.05,4.28,18.36,7.42c7.45,5.48,11.17,13.44,11.17,23.86c0,12.98-4.72,22.27-14.17,27.85
			c-9.45,5.59-20.42,8.38-32.92,8.38c-14.58,0-25.99-3.72-34.24-11.17c-8.25-7.39-12.29-17.42-12.13-30.09H1031.18z"/>
	</g>
	<g>
		<path fill="#FFFFFF" stroke="#FFFFFF" stroke-miterlimit="10" d="M601.98,712.1c2.6,1.86,4.05,3.98,4.34,6.35h-4.92
			c-0.56-1.8-1.67-3.23-3.33-4.28c-1.67-1.05-4-1.58-7.01-1.58c-3.67,0-6.63,0.97-8.89,2.9c-2.26,1.93-3.39,4.9-3.39,8.89
			c0,3.27,1.02,5.92,3.06,7.96c2.04,2.03,5.08,3.05,9.12,3.05c3.72,0,6.55-1.07,8.49-3.21c1.03-1.13,1.8-2.61,2.31-4.45h4.92
			c-0.44,2.94-1.89,5.41-4.36,7.4c-2.96,2.4-6.95,3.59-11.97,3.59c-4.33,0-7.96-0.98-10.9-2.95c-3.87-2.6-5.81-6.61-5.81-12.04
			c0-4.12,1.45-7.5,4.36-10.14c3.14-2.87,7.48-4.3,13.01-4.3C595.72,709.3,599.38,710.24,601.98,712.1z"/>
		<path fill="#FFFFFF" stroke="#FFFFFF" stroke-miterlimit="10" d="M618.29,710.06v17.27c0,2.03,0.51,3.71,1.52,5.06
			c1.5,2.03,4.04,3.04,7.61,3.04c4.28,0,7.18-1.1,8.72-3.29c0.83-1.19,1.24-2.79,1.24-4.81v-17.27h5.12v15.69
			c0,3.44-0.62,6.08-1.85,7.93c-2.27,3.37-6.54,5.06-12.83,5.06c-6.29,0-10.56-1.69-12.8-5.06c-1.23-1.85-1.85-4.5-1.85-7.93v-15.69
			H618.29z"/>
		<path fill="#FFFFFF" stroke="#FFFFFF" stroke-miterlimit="10" d="M650.31,710.06h5.05v24.61h18.87V738h-23.91V710.06z"/>
		<path fill="#FFFFFF" stroke="#FFFFFF" stroke-miterlimit="10" d="M702.47,710.06v3.33h-12.55V738h-5.12v-24.61h-12.55v-3.33
			H702.47z"/>
		<path fill="#FFFFFF" stroke="#FFFFFF" stroke-miterlimit="10" d="M712.56,710.06v17.27c0,2.03,0.51,3.71,1.52,5.06
			c1.5,2.03,4.04,3.04,7.61,3.04c4.28,0,7.18-1.1,8.72-3.29c0.83-1.19,1.24-2.79,1.24-4.81v-17.27h5.12v15.69
			c0,3.44-0.62,6.08-1.85,7.93c-2.27,3.37-6.54,5.06-12.83,5.06c-6.29,0-10.56-1.69-12.8-5.06c-1.23-1.85-1.85-4.5-1.85-7.93v-15.69
			H712.56z"/>
		<path fill="#FFFFFF" stroke="#FFFFFF" stroke-miterlimit="10" d="M745.2,710.06h17.24c2.84,0,5.18,0.31,7.02,0.93
			c3.5,1.19,5.25,3.39,5.25,6.6c0,1.67-0.46,3.04-1.38,4.11c-0.92,1.07-2.21,1.92-3.87,2.57c1.45,0.44,2.55,1.03,3.28,1.75
			s1.15,1.9,1.23,3.52l0.18,3.75c0.05,1.06,0.17,1.86,0.35,2.38c0.3,0.89,0.84,1.46,1.62,1.71V738h-6.19
			c-0.17-0.24-0.3-0.55-0.41-0.93c-0.1-0.38-0.19-1.12-0.25-2.21l-0.3-4.66c-0.12-1.83-1.02-3.05-2.71-3.67
			c-0.96-0.34-2.48-0.51-4.54-0.51h-11.49V738h-5.05V710.06z M761.91,722.86c2.37,0,4.24-0.35,5.62-1.06
			c1.38-0.71,2.07-1.99,2.07-3.84c0-1.99-0.96-3.35-2.89-4.07c-1.03-0.38-2.41-0.57-4.13-0.57h-12.32v9.55H761.91z"/>
		<path fill="#FFFFFF" stroke="#FFFFFF" stroke-miterlimit="10" d="M782.58,710.06h27.16v3.42h-22.24v8.48h20.56v3.23h-20.56v9.47
			h22.62V738h-27.54V710.06z"/>
		<path fill="#FFFFFF" stroke="#FFFFFF" stroke-miterlimit="10" d="M857.83,712.1c2.6,1.86,4.05,3.98,4.34,6.35h-4.92
			c-0.56-1.8-1.67-3.23-3.33-4.28s-4-1.58-7.01-1.58c-3.67,0-6.63,0.97-8.89,2.9c-2.26,1.93-3.38,4.9-3.38,8.89
			c0,3.27,1.02,5.92,3.06,7.96c2.04,2.03,5.08,3.05,9.12,3.05c3.72,0,6.55-1.07,8.5-3.21c1.03-1.13,1.8-2.61,2.31-4.45h4.92
			c-0.44,2.94-1.89,5.41-4.36,7.4c-2.96,2.4-6.95,3.59-11.97,3.59c-4.33,0-7.96-0.98-10.9-2.95c-3.87-2.6-5.81-6.61-5.81-12.04
			c0-4.12,1.45-7.5,4.36-10.14c3.14-2.87,7.48-4.3,13.01-4.3C851.57,709.3,855.23,710.24,857.83,712.1z"/>
		<path fill="#FFFFFF" stroke="#FFFFFF" stroke-miterlimit="10" d="M869.27,710.06h17.24c2.84,0,5.18,0.31,7.02,0.93
			c3.5,1.19,5.25,3.39,5.25,6.6c0,1.67-0.46,3.04-1.38,4.11c-0.92,1.07-2.21,1.92-3.87,2.57c1.45,0.44,2.55,1.03,3.28,1.75
			s1.15,1.9,1.23,3.52l0.18,3.75c0.05,1.06,0.17,1.86,0.35,2.38c0.3,0.89,0.84,1.46,1.62,1.71V738h-6.19
			c-0.17-0.24-0.3-0.55-0.41-0.93c-0.1-0.38-0.19-1.12-0.25-2.21l-0.3-4.66c-0.12-1.83-1.02-3.05-2.71-3.67
			c-0.96-0.34-2.48-0.51-4.54-0.51h-11.49V738h-5.05V710.06z M885.98,722.86c2.37,0,4.24-0.35,5.62-1.06
			c1.38-0.71,2.07-1.99,2.07-3.84c0-1.99-0.96-3.35-2.89-4.07c-1.03-0.38-2.41-0.57-4.13-0.57h-12.32v9.55H885.98z"/>
		<path fill="#FFFFFF" stroke="#FFFFFF" stroke-miterlimit="10" d="M906.65,710.06h27.16v3.42h-22.24v8.48h20.56v3.23h-20.56v9.47
			h22.62V738h-27.54V710.06z"/>
		<path fill="#FFFFFF" stroke="#FFFFFF" stroke-miterlimit="10" d="M951.63,710.06h5.71L970.85,738h-5.53l-3.78-8.37h-14.73
			l-4.03,8.37h-5.17L951.63,710.06z M959.92,726.55l-5.66-12.34l-6.01,12.34H959.92z"/>
		<path fill="#FFFFFF" stroke="#FFFFFF" stroke-miterlimit="10" d="M998.72,710.06v3.33h-12.55V738h-5.12v-24.61h-12.55v-3.33
			H998.72z"/>
		<path fill="#FFFFFF" stroke="#FFFFFF" stroke-miterlimit="10" d="M1033.1,714.06c2.47,2.47,3.7,5.64,3.7,9.49
			c0,4.17-1.41,7.64-4.23,10.4c-3.31,3.25-8.04,4.87-14.17,4.87c-5.73,0-10.24-1.42-13.52-4.26c-2.92-2.74-4.39-6.2-4.39-10.38
			c0-3.78,1.25-7.01,3.75-9.7c3.21-3.45,7.96-5.17,14.25-5.17C1025.07,709.3,1029.94,710.89,1033.1,714.06z M1028.65,731.85
			c1.99-2.39,2.98-5.14,2.98-8.24c0-3.28-1.15-5.93-3.44-7.93c-2.29-2-5.42-3-9.4-3c-3.85,0-7,0.99-9.43,2.98
			c-2.43,1.98-3.65,4.91-3.65,8.78c0,3.09,1.04,5.7,3.13,7.83c2.09,2.12,5.47,3.19,10.16,3.19
			C1023.45,735.43,1026.67,734.24,1028.65,731.85z"/>
		<path fill="#FFFFFF" stroke="#FFFFFF" stroke-miterlimit="10" d="M1043.42,710.06h17.24c2.84,0,5.18,0.31,7.02,0.93
			c3.5,1.19,5.25,3.39,5.25,6.6c0,1.67-0.46,3.04-1.38,4.11c-0.92,1.07-2.21,1.92-3.87,2.57c1.45,0.44,2.55,1.03,3.28,1.75
			s1.15,1.9,1.23,3.52l0.18,3.75c0.05,1.06,0.17,1.86,0.35,2.38c0.3,0.89,0.84,1.46,1.62,1.71V738h-6.19
			c-0.17-0.24-0.3-0.55-0.41-0.93c-0.1-0.38-0.19-1.12-0.25-2.21l-0.3-4.66c-0.12-1.83-1.02-3.05-2.71-3.67
			c-0.96-0.34-2.48-0.51-4.54-0.51h-11.49V738h-5.05V710.06z M1060.13,722.86c2.37,0,4.24-0.35,5.62-1.06
			c1.38-0.71,2.07-1.99,2.07-3.84c0-1.99-0.96-3.35-2.89-4.07c-1.03-0.38-2.41-0.57-4.13-0.57h-12.32v9.55H1060.13z"/>
		<path fill="#FFFFFF" stroke="#FFFFFF" stroke-miterlimit="10" d="M1083.61,728.99c0.12,1.58,0.62,2.87,1.5,3.86
			c1.67,1.85,4.62,2.78,8.85,2.78c1.89,0,3.62-0.2,5.17-0.61c3.01-0.79,4.51-2.19,4.51-4.22c0-1.52-0.63-2.61-1.9-3.25
			c-1.29-0.63-3.3-1.19-6.04-1.66l-5.05-0.86c-3.3-0.56-5.63-1.17-7-1.84c-2.37-1.17-3.55-2.91-3.55-5.23
			c0-2.51,1.16-4.57,3.47-6.18c2.32-1.61,5.6-2.42,9.84-2.42c3.91,0,7.22,0.71,9.95,2.12c2.73,1.41,4.1,3.67,4.1,6.78h-4.74
			c-0.25-1.5-0.79-2.64-1.62-3.44c-1.54-1.46-4.15-2.19-7.83-2.19c-2.98,0-5.11,0.47-6.42,1.41c-1.3,0.94-1.95,2.03-1.95,3.27
			c0,1.37,0.76,2.37,2.28,3c1,0.41,3.25,0.91,6.77,1.52l5.22,0.89c2.52,0.43,4.46,1.02,5.83,1.77c2.37,1.31,3.55,3.2,3.55,5.69
			c0,3.09-1.5,5.31-4.5,6.64c-3,1.33-6.49,2-10.46,2c-4.63,0-8.26-0.89-10.88-2.66c-2.62-1.76-3.9-4.15-3.85-7.17H1083.61z"/>
	</g>
</g>
<g>
	<path fill="#FFFFFF" stroke="#FFFFFF" stroke-width="4" stroke-miterlimit="10" d="M225.51,638.65c-0.17-0.16-0.34-0.33-0.52-0.49
		c-0.01-0.01-0.02-0.02-0.04-0.04c-0.19-0.18-0.39-0.36-0.57-0.54l-0.02-0.02c-0.09-0.08-0.17-0.15-0.25-0.23
		c-0.32-0.29-0.62-0.57-0.91-0.84c-0.26-0.24-0.52-0.47-0.76-0.69c-0.11-0.09-0.2-0.18-0.3-0.27c0.57-0.46,1.13-0.92,1.68-1.38
		c0.03-0.02,0.06-0.05,0.09-0.08c0.54-0.45,1.08-0.89,1.6-1.33c0.58-0.48,1.15-0.96,1.72-1.44c0.29-0.25,0.59-0.5,0.88-0.74
		c1.26-1.07,2.49-2.12,3.68-3.16c0.19-0.17,0.39-0.34,0.59-0.51c0.21-0.19,0.42-0.37,0.63-0.56c0.1-0.09,0.2-0.17,0.3-0.26
		c0.03-0.03,0.06-0.05,0.09-0.08c0.46-0.4,0.92-0.81,1.37-1.22c0.42-0.37,0.83-0.74,1.24-1.11c0.26-0.23,0.52-0.47,0.78-0.71
		c0.01-0.01,0.02-0.02,0.04-0.03c0.13-0.12,0.26-0.23,0.38-0.35c0.1-0.09,0.2-0.18,0.29-0.28c0.03-0.02,0.06-0.05,0.09-0.08
		c0.1-0.09,0.19-0.18,0.29-0.26c0.5-0.46,1-0.92,1.48-1.37c0.02-0.01,0.03-0.02,0.04-0.04c0.13-0.12,0.25-0.23,0.39-0.35
		c0.16-0.16,0.32-0.3,0.49-0.46c0.18-0.16,0.35-0.33,0.52-0.5c0.05-0.04,0.09-0.09,0.14-0.13c-0.93-1.32-1.81-2.62-2.66-3.91
		c-0.43-0.65-0.85-1.29-1.26-1.93c-0.35-0.55-0.7-1.1-1.03-1.64c-0.29,0.27-0.57,0.54-0.86,0.81c-0.47,0.45-0.95,0.9-1.44,1.35
		c-0.14,0.13-0.28,0.25-0.42,0.38c-0.31,0.29-0.62,0.59-0.94,0.88c-0.01,0.01-0.02,0.02-0.04,0.04c-0.02,0.02-0.04,0.04-0.06,0.06
		c-0.7,0.63-1.41,1.28-2.14,1.94c-0.57,0.52-1.16,1.04-1.76,1.57c-0.1,0.09-0.21,0.18-0.3,0.27c-0.25,0.22-0.49,0.44-0.74,0.66
		c-0.07,0.06-0.14,0.12-0.21,0.18c-0.97,0.86-1.97,1.72-3,2.6c-0.35,0.3-0.71,0.6-1.07,0.9c-0.07,0.06-0.14,0.12-0.21,0.18
		c-0.78,0.66-1.58,1.33-2.38,2c-0.64,0.54-1.3,1.08-1.97,1.63c-0.02,0.02-0.05,0.04-0.07,0.06l-0.5,0.41
		c-0.05,0.04-0.09,0.07-0.13,0.11c-0.01,0.01-0.02,0.02-0.03,0.02c-0.01,0.01-0.02,0.02-0.03,0.02c-0.04,0.04-0.08,0.06-0.12,0.09
		c-0.09,0.08-0.18,0.15-0.26,0.22c-0.03,0.02-0.06,0.05-0.09,0.08c-0.06,0.05-0.13,0.1-0.2,0.15c-0.01,0.01-0.01,0.02-0.02,0.02
		c-0.1,0.08-0.19,0.16-0.29,0.23c-0.19,0.16-0.38,0.31-0.57,0.47c-0.04,0.04-0.08,0.06-0.11,0.09c-0.01,0-0.01,0.01-0.02,0.01
		c-0.02,0.02-0.05,0.05-0.08,0.06c-0.17,0.13-0.34,0.28-0.5,0.41c-0.05,0.04-0.09,0.08-0.14,0.12c-0.04,0.03-0.06,0.05-0.1,0.08
		c-0.15-0.14-0.31-0.29-0.46-0.43c-0.01-0.02-0.04-0.03-0.05-0.05c-0.02-0.02-0.05-0.05-0.08-0.06c-0.05-0.05-0.1-0.09-0.15-0.14
		c-0.23-0.21-0.46-0.42-0.68-0.63c-0.13-0.13-0.27-0.25-0.4-0.37c-0.01-0.01-0.02-0.02-0.04-0.04c-0.02-0.02-0.04-0.04-0.06-0.06
		c-0.15-0.14-0.3-0.28-0.45-0.42c-0.08-0.07-0.16-0.14-0.23-0.21c-0.01-0.02-0.04-0.04-0.05-0.05c-2.52-2.35-4.89-4.61-7.11-6.78
		c-0.13-0.13-0.27-0.27-0.4-0.4l-0.14-0.14c-0.18-0.17-0.35-0.34-0.52-0.51c-1.11-1.1-2.18-2.17-3.22-3.23
		c-0.05-0.05-0.11-0.11-0.16-0.16c-0.04-0.04-0.08-0.08-0.11-0.11c-0.02-0.02-0.05-0.05-0.07-0.07c-0.03-0.03-0.05-0.06-0.09-0.09
		c-0.12-0.12-0.24-0.25-0.36-0.36c-0.18-0.18-0.35-0.36-0.53-0.54c-0.25-0.25-0.49-0.5-0.73-0.76c-0.81-0.83-1.59-1.65-2.35-2.45
		c-0.06-0.06-0.12-0.12-0.18-0.19c-0.06-0.06-0.12-0.12-0.18-0.19c-0.02-0.02-0.04-0.05-0.06-0.06c-0.54-0.58-1.07-1.15-1.59-1.72
		c-5.35-5.79-9.52-10.9-12.81-15.45c-3.42-4.74-5.87-8.88-7.68-12.62c-0.01-0.01-0.01-0.02-0.01-0.03c-0.3-0.62-0.58-1.22-0.84-1.82
		c-1.25-2.82-2.14-5.41-2.84-7.92c-0.04-0.14-0.08-0.28-0.12-0.42c-0.01-0.03-0.01-0.05-0.02-0.08c-0.02-0.06-0.03-0.12-0.05-0.17
		c-0.12-0.47-0.25-0.95-0.35-1.42c-0.08-0.38-0.16-0.76-0.24-1.13c-0.03-0.15-0.06-0.28-0.09-0.43c-0.05-0.25-0.09-0.49-0.13-0.74
		c-0.05-0.24-0.08-0.47-0.12-0.71c-0.04-0.19-0.06-0.37-0.09-0.56c-0.02-0.16-0.05-0.33-0.07-0.49c-0.01-0.06-0.02-0.12-0.02-0.18
		c-0.03-0.22-0.06-0.45-0.08-0.67c-0.03-0.22-0.05-0.45-0.08-0.67c-0.02-0.18-0.04-0.36-0.05-0.54c-0.02-0.16-0.03-0.32-0.04-0.47
		c-0.01-0.16-0.02-0.31-0.03-0.47c-0.01-0.1-0.01-0.21-0.02-0.3c-0.02-0.45-0.04-0.9-0.06-1.34c-0.01-0.39-0.01-0.77-0.01-1.15
		c0-0.45,0.01-0.89,0.02-1.34c0-0.05,0-0.09,0.01-0.14c0-0.12,0-0.23,0.01-0.35c0.01-0.26,0.03-0.51,0.05-0.77
		c0.01-0.18,0.02-0.36,0.04-0.54c0.01-0.18,0.03-0.36,0.05-0.54c0.01-0.18,0.04-0.37,0.05-0.56c0.01-0.07,0.01-0.13,0.02-0.2
		c0.01-0.06,0.02-0.12,0.02-0.17c0.01-0.11,0.02-0.21,0.04-0.32c0.01-0.11,0.03-0.22,0.04-0.33c0.04-0.25,0.06-0.5,0.11-0.76
		c-0.01,0-0.01-0.01,0-0.01c0-0.01,0-0.02,0.01-0.02c0.02-0.19,0.05-0.37,0.08-0.56c0.01-0.09,0.03-0.18,0.05-0.28
		c0.06-0.37,0.13-0.75,0.21-1.12c0.01-0.02,0.01-0.05,0.02-0.08c0.02-0.11,0.04-0.21,0.06-0.32c0-0.02,0.01-0.04,0.01-0.06
		c0.01-0.04,0.02-0.08,0.02-0.12v-0.01c0.05-0.21,0.1-0.43,0.15-0.64c0.02-0.11,0.05-0.22,0.08-0.33c0.2-0.81,0.42-1.6,0.66-2.37
		c0.25-0.82,0.52-1.63,0.81-2.41c0.19-0.52,0.4-1.03,0.62-1.53c1.21-2.85,2.69-5.41,4.38-7.75c0.95-1.31,1.96-2.54,3.03-3.69
		c1.35-1.48,2.79-2.82,4.28-4.07c1.65-1.36,3.36-2.59,5.11-3.7c0.08-0.06,0.16-0.11,0.25-0.16c0.3-0.19,0.6-0.37,0.9-0.55
		c0,0,0.01,0,0.01-0.01c0.45-0.26,0.89-0.52,1.34-0.77c0.11-0.06,0.2-0.12,0.31-0.18c1.3-0.71,2.6-1.36,3.89-1.95
		c0.3-0.13,0.6-0.26,0.9-0.39c0.44-0.19,0.87-0.37,1.31-0.54c3.21-1.29,6.28-2.18,8.88-2.72c0.46-0.1,0.9-0.19,1.34-0.26
		c1.44-0.26,2.86-0.47,4.26-0.64c0.06-0.01,0.13-0.02,0.19-0.02h0.01c0.05,0,0.08-0.01,0.13-0.01c0.25-0.03,0.49-0.05,0.73-0.08
		c1.18-0.11,2.34-0.19,3.49-0.22h0.02c0.25,0,0.5-0.01,0.76-0.01c0.23,0,0.47,0.01,0.7,0.01h0.03c0.78,0.02,1.55,0.06,2.3,0.13
		c0.24,0.02,0.47,0.05,0.7,0.08c0.08,0.01,0.16,0.02,0.25,0.04c0.11,0.01,0.21,0.02,0.3,0.04c0.09,0.01,0.18,0.03,0.27,0.04
		c0.22,0.04,0.45,0.07,0.67,0.11c0.9,0.15,1.78,0.31,2.64,0.49c0.12-0.29,0.25-0.57,0.37-0.86c1.18-2.61,2.47-5.11,3.87-7.48
		c-1.59-0.39-3.23-0.73-4.92-1.03c-0.36-0.06-0.72-0.13-1.09-0.18c-0.11-0.02-0.22-0.04-0.34-0.05c-0.35-0.06-0.7-0.11-1.05-0.15
		c-0.11-0.01-0.22-0.03-0.33-0.04c-0.08-0.01-0.15-0.02-0.22-0.03c-0.9-0.09-1.79-0.16-2.67-0.19c-0.32-0.01-0.64-0.02-0.95-0.02
		h-0.54c-0.17,0-0.33,0-0.5,0.01c-0.28,0-0.55,0.01-0.82,0.01c-1.35,0.04-2.68,0.13-3.99,0.28c-0.21,0.02-0.41,0.04-0.62,0.06
		c-0.04,0-0.07,0.01-0.11,0.01c-0.13,0.02-0.26,0.03-0.4,0.05c-0.01,0-0.01,0-0.01,0.01c-1.53,0.18-3.04,0.42-4.52,0.68
		c-3.41,0.6-7.44,1.69-11.72,3.4c-0.08,0.03-0.16,0.06-0.24,0.09c-0.7,0.28-1.4,0.58-2.11,0.9c-0.01,0-0.03,0.01-0.04,0.01
		c-1.52,0.68-3.06,1.44-4.59,2.28c-0.1,0.05-0.19,0.1-0.29,0.16c-0.76,0.42-1.51,0.86-2.27,1.31c-0.12,0.07-0.23,0.15-0.35,0.22
		c-0.27,0.16-0.54,0.33-0.8,0.51c-3.03,1.93-6,4.22-8.79,6.94c-0.56,0.54-1.12,1.11-1.66,1.69c-0.01,0.01-0.01,0.02-0.02,0.02
		c-1.87,2-3.64,4.19-5.22,6.61c-0.45,0.67-0.87,1.35-1.29,2.04c-2.03,3.43-3.72,7.26-4.93,11.49c-0.2,0.68-0.38,1.37-0.55,2.07
		c-0.11,0.45-0.21,0.88-0.29,1.33c-0.05,0.23-0.1,0.46-0.15,0.69c-0.04,0.18-0.07,0.37-0.1,0.55c-0.04,0.19-0.07,0.37-0.11,0.56
		c-0.04,0.21-0.07,0.4-0.1,0.6c-0.01,0.07-0.02,0.14-0.04,0.21c-0.04,0.22-0.06,0.43-0.09,0.65c-0.04,0.23-0.07,0.46-0.1,0.69v0.04
		c-0.01,0.01-0.01,0.01-0.01,0.02c-0.01,0.11-0.02,0.21-0.04,0.3v0.01c-0.01,0.11-0.02,0.21-0.04,0.32
		c-0.06,0.46-0.11,0.92-0.14,1.38v0.02c-0.01,0.09-0.02,0.18-0.02,0.27c-0.02,0.26-0.04,0.51-0.06,0.77
		c-0.05,0.77-0.09,1.55-0.11,2.33v0.2c-0.01,0.29-0.01,0.59-0.01,0.89c0,0.8,0.02,1.6,0.06,2.4c0.01,0.13,0.01,0.25,0.02,0.37
		c0.01,0.28,0.04,0.56,0.05,0.84c0.01,0.09,0.01,0.17,0.02,0.26c0.04,0.53,0.08,1.07,0.14,1.6c0.05,0.53,0.12,1.05,0.19,1.58
		c0.04,0.25,0.07,0.49,0.11,0.74c0.04,0.26,0.08,0.52,0.12,0.77c0.01,0.1,0.03,0.21,0.05,0.3c0.02,0.15,0.05,0.3,0.08,0.45
		c0.03,0.18,0.06,0.36,0.1,0.53c0.1,0.54,0.21,1.07,0.32,1.6c0.13,0.6,0.27,1.2,0.42,1.79c0.06,0.24,0.12,0.47,0.19,0.71
		c0.06,0.26,0.14,0.52,0.21,0.78c0.04,0.14,0.08,0.28,0.12,0.42c0.75,2.61,1.71,5.34,2.96,8.22c0,0,0,0.01,0.01,0.01
		c0.36,0.83,0.74,1.66,1.15,2.51c3.1,6.42,7.72,13.57,14.76,22.04c1.33,1.6,2.74,3.25,4.26,4.95c0.59,0.66,1.18,1.32,1.8,2
		c0.8,0.88,1.62,1.77,2.47,2.67c0.19,0.2,0.37,0.39,0.56,0.59c0.27,0.29,0.54,0.57,0.82,0.86c0.11,0.13,0.23,0.25,0.35,0.37
		c0.04,0.04,0.08,0.09,0.13,0.13c0.28,0.3,0.57,0.6,0.86,0.91c0.73,0.76,1.47,1.51,2.23,2.28c0.11,0.11,0.21,0.22,0.32,0.33
		c0.13,0.14,0.27,0.28,0.4,0.41c0.18,0.19,0.37,0.37,0.56,0.56l0.45,0.45c0.84,0.85,1.7,1.7,2.59,2.57
		c0.32,0.32,0.65,0.64,0.98,0.96c1.11,1.08,2.26,2.18,3.44,3.32c0.77,0.73,1.55,1.47,2.35,2.22c0.29,0.27,0.57,0.53,0.86,0.81
		c0.51,0.47,1.03,0.96,1.56,1.45c-0.32,0.29-0.63,0.57-0.93,0.85c-0.11,0.09-0.21,0.19-0.31,0.29c-0.32,0.29-0.64,0.59-0.95,0.88
		c-0.1,0.09-0.2,0.18-0.29,0.27c-0.11,0.11-0.22,0.21-0.33,0.32c-0.11,0.11-0.22,0.21-0.33,0.32c-0.01,0.01-0.02,0.01-0.02,0.02
		c-0.33,0.32-0.66,0.64-0.98,0.95c-0.31,0.3-0.61,0.59-0.91,0.9 M272.58,561.08c-0.03-0.46-0.07-0.98-0.12-1.56
		c-0.02-0.29-0.05-0.6-0.09-0.91c0-0.01,0-0.01,0-0.01c-0.09-0.76-0.19-1.59-0.33-2.5c-0.02-0.11-0.04-0.22-0.05-0.33
		c-0.03-0.18-0.06-0.37-0.09-0.55c-0.02-0.16-0.05-0.32-0.08-0.49c-0.03-0.18-0.06-0.36-0.09-0.54c-0.04-0.22-0.08-0.44-0.12-0.66
		c-0.04-0.21-0.08-0.41-0.12-0.62c-0.04-0.18-0.08-0.37-0.12-0.57c-0.04-0.17-0.07-0.35-0.11-0.52c-0.03-0.13-0.06-0.27-0.09-0.4
		c-0.1-0.44-0.21-0.89-0.32-1.34c0-0.02-0.01-0.03-0.01-0.05c-0.09-0.35-0.18-0.7-0.27-1.07c-0.18-0.66-0.37-1.34-0.57-2.03
		c-0.16-0.53-0.33-1.08-0.52-1.63c-0.21-0.64-0.44-1.29-0.67-1.94c-0.13-0.35-0.26-0.71-0.4-1.07c-1.32-3.4-3.05-6.97-5.32-10.49
		c-0.05-0.09-0.11-0.17-0.16-0.25c-2.51-3.84-5.67-7.61-9.63-11c-0.05-0.05-0.11-0.09-0.16-0.13c-1.54,2.55-2.93,5.25-4.15,8.14
		c1.17,1.07,2.24,2.18,3.25,3.31c2.92,3.34,5.13,6.91,6.8,10.43c0.4,0.86,0.78,1.7,1.12,2.55c0.3,0.74,0.59,1.47,0.84,2.2
		c0.09,0.26,0.19,0.53,0.28,0.78c0.12,0.36,0.25,0.72,0.36,1.08c0.22,0.7,0.42,1.38,0.6,2.04c0.04,0.13,0.08,0.27,0.11,0.4
		c0,0,0.01,0.01,0.01,0.01c0.02,0.08,0.04,0.15,0.06,0.23c0.21,0.78,0.39,1.54,0.56,2.27c0.04,0.17,0.07,0.33,0.11,0.5
		c0.01,0.06,0.02,0.13,0.04,0.19c0.12,0.57,0.22,1.12,0.31,1.65c0.02,0.12,0.05,0.25,0.06,0.36c0.05,0.29,0.09,0.57,0.13,0.86
		c0.04,0.22,0.06,0.43,0.09,0.63c0.03,0.21,0.05,0.41,0.08,0.6c0.07,0.57,0.13,1.1,0.18,1.57c0.08,0.83,0.12,1.49,0.14,1.99
		c0.02,0.46,0.03,0.76,0.03,0.87v0.12c-0.01,0.21-0.02,0.43-0.04,0.64c0,0,0,0,0,0.01c-0.02,0.33-0.04,0.66-0.06,1
		c-0.01,0.16-0.02,0.32-0.04,0.47c-0.01,0.19-0.03,0.37-0.04,0.55c-0.01,0.11-0.02,0.23-0.03,0.35c0,0.01-0.01,0.03-0.01,0.04v0.02
		c-0.02,0.21-0.04,0.43-0.06,0.64c-0.01,0.08-0.02,0.16-0.03,0.24c-0.03,0.32-0.07,0.64-0.11,0.95c-0.04,0.32-0.08,0.64-0.13,0.96
		c-0.01,0.07-0.02,0.15-0.04,0.22c-0.09,0.6-0.19,1.21-0.32,1.82c-0.04,0.18-0.07,0.36-0.11,0.54c-0.03,0.14-0.06,0.28-0.09,0.42
		c-0.02,0.08-0.04,0.15-0.05,0.22c-0.18,0.8-0.39,1.61-0.62,2.43c-0.04,0.16-0.09,0.33-0.14,0.49c-0.6,2.04-1.4,4.16-2.47,6.42
		c-0.46,0.98-0.97,1.99-1.53,3.03c-0.96,1.76-2.08,3.6-3.4,5.54c0.73,1.34,1.52,2.71,2.37,4.11c0.18,0.31,0.37,0.62,0.56,0.93
		c0.49,0.8,1,1.62,1.52,2.44c0.15,0.23,0.29,0.46,0.45,0.69c0.1-0.13,0.2-0.26,0.29-0.4c4.97-6.84,8.07-12.98,9.94-18.71
		c0.19-0.59,0.37-1.18,0.54-1.76c0.01-0.05,0.02-0.09,0.04-0.13c0.05-0.17,0.09-0.33,0.14-0.5c0.13-0.48,0.25-0.95,0.36-1.43
		c0.01-0.04,0.02-0.06,0.02-0.09c0.33-1.33,0.58-2.63,0.79-3.91c0.07-0.42,0.13-0.83,0.19-1.24c0,0,0,0,0-0.01
		c0.02-0.12,0.04-0.24,0.05-0.36c0.01-0.04,0.01-0.08,0.02-0.12c0.02-0.14,0.04-0.28,0.05-0.42c0.04-0.33,0.08-0.66,0.12-0.98
		c0-0.01,0.01-0.02,0.01-0.04c0.03-0.26,0.05-0.52,0.08-0.77c0.04-0.34,0.06-0.67,0.09-1c0-0.02,0.01-0.03,0.01-0.04
		c0.01-0.14,0.02-0.28,0.04-0.4c0.02-0.28,0.04-0.54,0.05-0.81c0.04-0.58,0.06-1.15,0.09-1.71c0.01-0.06,0.01-0.12,0.01-0.19V563
		C272.65,562.69,272.64,562.03,272.58,561.08z"/>
</g>
<g>
	<path fill="#FFFFFF" stroke="#FFFFFF" stroke-width="4" stroke-miterlimit="10" d="M378.56,593.66c-3.25-4.55-5.6-8.55-7.35-12.16
		c-0.01-0.01-0.01-0.02-0.01-0.03c-0.3-0.62-0.58-1.22-0.84-1.82c-1.25-2.82-2.14-5.41-2.84-7.92c-0.04-0.14-0.08-0.28-0.12-0.42
		c-0.01-0.03-0.01-0.05-0.02-0.08c-0.02-0.06-0.03-0.12-0.05-0.17c-0.12-0.47-0.25-0.95-0.35-1.42c-0.08-0.38-0.16-0.76-0.24-1.13
		c-0.03-0.15-0.06-0.28-0.09-0.43c-0.05-0.25-0.09-0.49-0.13-0.74c-0.05-0.24-0.08-0.47-0.12-0.71c-0.04-0.19-0.06-0.37-0.09-0.56
		c-0.02-0.16-0.05-0.33-0.07-0.49c-0.01-0.06-0.02-0.12-0.02-0.18c-0.03-0.22-0.06-0.45-0.08-0.67c-0.03-0.22-0.05-0.45-0.08-0.67
		c-0.02-0.18-0.04-0.36-0.05-0.54c-0.02-0.16-0.03-0.32-0.04-0.47c-0.01-0.16-0.02-0.31-0.03-0.47c-0.01-0.1-0.01-0.21-0.02-0.3
		c-0.02-0.45-0.04-0.9-0.06-1.34c-0.01-0.39-0.01-0.77-0.01-1.15c0-0.45,0.01-0.89,0.02-1.34c0-0.05,0-0.09,0.01-0.14
		c0-0.12,0-0.23,0.01-0.35c0.01-0.26,0.03-0.51,0.05-0.77c0.01-0.18,0.02-0.36,0.04-0.54c0.01-0.18,0.03-0.36,0.05-0.54
		c0.01-0.18,0.04-0.37,0.05-0.56c0.01-0.07,0.01-0.13,0.02-0.2c0.01-0.06,0.02-0.12,0.02-0.17c0.01-0.11,0.02-0.21,0.04-0.32
		s0.03-0.22,0.04-0.33c0.04-0.25,0.06-0.5,0.11-0.76c-0.01,0-0.01-0.01,0-0.01c0-0.01,0-0.02,0.01-0.02
		c0.02-0.19,0.05-0.37,0.08-0.56c0.01-0.09,0.03-0.18,0.05-0.28c0.06-0.37,0.13-0.75,0.21-1.12c0.01-0.02,0.01-0.05,0.02-0.08
		c0.02-0.11,0.04-0.21,0.06-0.32c0-0.02,0.01-0.04,0.01-0.06c0.01-0.04,0.02-0.08,0.02-0.12v-0.01c0.05-0.21,0.1-0.43,0.15-0.64
		c0.02-0.11,0.05-0.22,0.08-0.33c0.2-0.81,0.42-1.6,0.66-2.37c0.25-0.82,0.52-1.63,0.81-2.41c0.19-0.52,0.4-1.03,0.62-1.53
		c1.21-2.85,2.69-5.41,4.38-7.75c0.95-1.31,1.96-2.54,3.03-3.69c1.35-1.48,2.79-2.82,4.28-4.07c0.3-0.25,0.61-0.5,0.92-0.74
		c-0.08-0.18-0.16-0.36-0.25-0.54c-1.17-2.46-2.5-4.94-4.02-7.39c-1.71,1.29-3.38,2.72-4.99,4.28c-0.56,0.54-1.12,1.11-1.66,1.69
		c-0.01,0.01-0.01,0.02-0.02,0.02c-1.87,2-3.64,4.19-5.22,6.61c-0.45,0.67-0.87,1.35-1.29,2.04c-2.03,3.43-3.72,7.26-4.93,11.49
		c-0.2,0.68-0.38,1.37-0.55,2.07c-0.11,0.45-0.21,0.88-0.29,1.33c-0.05,0.23-0.1,0.46-0.15,0.69c-0.04,0.18-0.07,0.37-0.1,0.55
		c-0.04,0.19-0.07,0.37-0.11,0.56c-0.04,0.21-0.07,0.4-0.1,0.6c-0.01,0.07-0.02,0.14-0.04,0.21c-0.04,0.22-0.06,0.43-0.09,0.65
		c-0.04,0.23-0.07,0.46-0.1,0.69v0.04c-0.01,0.01-0.01,0.01-0.01,0.02c-0.01,0.11-0.02,0.21-0.04,0.3v0.01
		c-0.01,0.11-0.02,0.21-0.04,0.32c-0.06,0.46-0.11,0.92-0.14,1.38v0.02c-0.01,0.09-0.02,0.18-0.02,0.27
		c-0.02,0.26-0.04,0.51-0.06,0.77c-0.05,0.77-0.09,1.55-0.11,2.33v0.2c-0.01,0.29-0.01,0.59-0.01,0.89c0,0.8,0.02,1.6,0.06,2.4
		c0.01,0.13,0.01,0.25,0.02,0.37c0.01,0.28,0.04,0.56,0.05,0.84c0.01,0.09,0.01,0.17,0.02,0.26c0.04,0.53,0.08,1.07,0.14,1.6
		c0.05,0.53,0.12,1.05,0.19,1.58c0.04,0.25,0.07,0.49,0.11,0.74c0.04,0.26,0.08,0.52,0.12,0.77c0.01,0.1,0.03,0.21,0.05,0.3
		c0.02,0.15,0.05,0.3,0.08,0.45c0.03,0.18,0.06,0.36,0.1,0.53c0.1,0.54,0.21,1.07,0.32,1.6c0.13,0.6,0.27,1.2,0.42,1.79
		c0.06,0.24,0.12,0.47,0.19,0.71c0.06,0.26,0.14,0.52,0.21,0.78c0.04,0.14,0.08,0.28,0.12,0.42c0.75,2.61,1.71,5.34,2.96,8.22
		c0,0,0,0.01,0.01,0.01c0.36,0.83,0.74,1.66,1.15,2.51c2.3,4.75,5.42,9.9,9.75,15.69c0.56-0.77,1.09-1.53,1.61-2.28
		c0.65-0.94,1.27-1.86,1.86-2.76c0.18-0.28,0.36-0.54,0.53-0.82C377.79,594.89,378.19,594.27,378.56,593.66z M422.49,638.65
		c-0.17-0.16-0.34-0.33-0.52-0.49c-0.01-0.01-0.02-0.02-0.04-0.04c-0.19-0.18-0.39-0.36-0.57-0.54l-0.02-0.02
		c-0.09-0.08-0.17-0.15-0.25-0.23c-0.32-0.29-0.62-0.57-0.91-0.84c-0.26-0.24-0.52-0.47-0.76-0.69c-0.11-0.09-0.2-0.18-0.3-0.27
		c0.57-0.46,1.13-0.92,1.68-1.38c0.03-0.02,0.06-0.05,0.09-0.08c0.54-0.45,1.08-0.89,1.6-1.33c0.58-0.48,1.15-0.96,1.72-1.44
		c0.29-0.25,0.59-0.5,0.88-0.74c1.26-1.07,2.49-2.12,3.68-3.16c0.19-0.17,0.39-0.34,0.59-0.51c0.21-0.19,0.42-0.37,0.63-0.56
		c0.1-0.09,0.2-0.17,0.3-0.26c0.03-0.03,0.06-0.05,0.09-0.08c0.46-0.4,0.92-0.81,1.37-1.22c0.42-0.37,0.83-0.74,1.24-1.11
		c0.26-0.23,0.52-0.47,0.78-0.71c0.01-0.01,0.02-0.02,0.04-0.03c0.13-0.12,0.26-0.23,0.38-0.35c0.1-0.09,0.2-0.18,0.29-0.28
		c0.03-0.02,0.06-0.05,0.09-0.08c0.1-0.09,0.19-0.18,0.29-0.26c0.5-0.46,1-0.92,1.48-1.37c0.02-0.01,0.03-0.02,0.04-0.04
		c0.13-0.12,0.25-0.23,0.39-0.35c0.16-0.16,0.32-0.3,0.49-0.46c0.18-0.16,0.35-0.33,0.52-0.5c0.21-0.19,0.41-0.39,0.62-0.58
		c0.01-0.01,0.02-0.02,0.03-0.03c0.32-0.31,0.64-0.61,0.95-0.91c0.03-0.03,0.06-0.06,0.08-0.08c0.13-0.12,0.26-0.25,0.39-0.37
		c0.03-0.03,0.06-0.05,0.09-0.08c0.59-0.58,1.18-1.15,1.75-1.72c0.04-0.04,0.07-0.08,0.11-0.11c0.17-0.17,0.34-0.35,0.51-0.51
		c0.53-0.53,1.04-1.05,1.55-1.56c0.15-0.16,0.31-0.32,0.46-0.47c0.01-0.02,0.03-0.04,0.05-0.05c0.01-0.01,0.02-0.03,0.04-0.04
		c5.18-5.34,9.31-10.22,12.62-14.77c4.97-6.84,8.07-12.98,9.94-18.71c0.19-0.59,0.37-1.18,0.54-1.76c0.01-0.05,0.02-0.09,0.04-0.13
		c0.05-0.17,0.09-0.33,0.14-0.5c0.13-0.48,0.25-0.95,0.36-1.43c0.01-0.04,0.02-0.06,0.02-0.09c0.33-1.33,0.58-2.63,0.79-3.91
		c0.07-0.42,0.13-0.83,0.19-1.24c0,0,0,0,0-0.01c0.02-0.12,0.04-0.24,0.05-0.36c0.01-0.04,0.01-0.08,0.02-0.12
		c0.02-0.14,0.04-0.28,0.05-0.42c0.04-0.33,0.08-0.66,0.12-0.98c0-0.01,0.01-0.02,0.01-0.04c0.03-0.26,0.05-0.52,0.08-0.77
		c0.04-0.34,0.06-0.67,0.09-1c0-0.02,0.01-0.03,0.01-0.04c0.01-0.14,0.02-0.28,0.04-0.4c0.02-0.28,0.04-0.54,0.05-0.81
		c0.04-0.58,0.06-1.15,0.09-1.71c0.01-0.06,0.01-0.12,0.01-0.19V563c-0.01-0.31-0.02-0.97-0.08-1.92c-0.03-0.46-0.07-0.98-0.12-1.56
		c-0.02-0.29-0.05-0.6-0.09-0.91c0-0.01,0-0.01,0-0.01c-0.09-0.76-0.19-1.59-0.33-2.5c-0.02-0.11-0.04-0.22-0.05-0.33
		c-0.03-0.18-0.06-0.37-0.09-0.55c-0.02-0.16-0.05-0.32-0.08-0.49c-0.03-0.18-0.06-0.36-0.09-0.54c-0.04-0.22-0.08-0.44-0.12-0.66
		c-0.04-0.21-0.08-0.41-0.12-0.62c-0.04-0.18-0.08-0.37-0.12-0.57c-0.04-0.17-0.07-0.35-0.11-0.52c-0.03-0.13-0.06-0.27-0.09-0.4
		c-0.1-0.44-0.21-0.89-0.32-1.34c0-0.02-0.01-0.03-0.01-0.05c-0.09-0.35-0.18-0.7-0.27-1.07c-0.18-0.66-0.37-1.34-0.57-2.03
		c-0.16-0.53-0.33-1.08-0.52-1.63c-0.21-0.64-0.44-1.29-0.67-1.94c-0.13-0.35-0.26-0.71-0.4-1.07c-1.32-3.4-3.05-6.97-5.32-10.49
		c-0.05-0.09-0.11-0.17-0.16-0.25c-2.51-3.84-5.67-7.61-9.63-11c-0.4-0.35-0.82-0.7-1.24-1.04c-0.54-0.43-1.1-0.86-1.66-1.28
		c-0.75-0.56-1.53-1.11-2.33-1.64c-0.59-0.38-1.18-0.76-1.79-1.12c-0.53-0.32-1.07-0.63-1.62-0.93c-0.02-0.01-0.04-0.02-0.05-0.03
		c-0.13-0.08-0.26-0.15-0.39-0.22c-0.86-0.46-1.74-0.91-2.65-1.34c-0.01-0.01-0.03-0.01-0.04-0.02c-0.01-0.01-0.03-0.01-0.04-0.02
		c-0.54-0.26-1.1-0.51-1.66-0.75c-2.43-1.05-5.01-1.99-7.77-2.76c-2.3-0.66-4.73-1.2-7.28-1.64c-0.36-0.06-0.72-0.13-1.09-0.18
		c-0.11-0.02-0.22-0.04-0.34-0.05c-0.35-0.06-0.7-0.11-1.05-0.15c-0.11-0.01-0.22-0.03-0.33-0.04c-0.08-0.01-0.15-0.02-0.22-0.03
		c-0.9-0.09-1.79-0.16-2.67-0.19c-0.32-0.01-0.64-0.02-0.95-0.02h-0.54c-0.17,0-0.33,0-0.5,0.01c-0.28,0-0.55,0.01-0.82,0.01
		c-1.35,0.04-2.68,0.13-3.99,0.28c-0.21,0.02-0.41,0.04-0.62,0.06c-0.04,0-0.07,0.01-0.11,0.01c-0.13,0.02-0.26,0.03-0.4,0.05
		c-0.01,0-0.01,0-0.01,0.01c-1.53,0.18-3.04,0.42-4.52,0.68c-0.58,0.1-1.18,0.22-1.8,0.35c1.51,2.55,2.86,5.1,4.05,7.63
		c0.12,0.26,0.25,0.53,0.37,0.79c1.01-0.17,2.02-0.31,3.02-0.43c0.06-0.01,0.13-0.02,0.19-0.02h0.01c0.05,0,0.08-0.01,0.13-0.01
		c0.25-0.03,0.49-0.05,0.73-0.08c1.18-0.11,2.34-0.19,3.49-0.22h0.02c0.25,0,0.5-0.01,0.76-0.01c0.23,0,0.47,0.01,0.7,0.01h0.03
		c0.78,0.02,1.55,0.06,2.3,0.13c0.24,0.02,0.47,0.05,0.7,0.08c0.08,0.01,0.16,0.02,0.25,0.04c0.11,0.01,0.2,0.02,0.3,0.04
		c0.09,0.01,0.18,0.03,0.27,0.04c0.22,0.04,0.45,0.07,0.67,0.11c2.41,0.39,4.66,0.89,6.78,1.48c1.29,0.36,2.52,0.75,3.71,1.17
		c0.98,0.35,1.93,0.72,2.84,1.1c0.61,0.26,1.2,0.53,1.78,0.8c0.09,0.04,0.17,0.08,0.25,0.12c0.54,0.25,1.07,0.52,1.59,0.79
		c0.26,0.14,0.53,0.28,0.78,0.42c0.01,0.01,0.01,0.01,0.01,0.01c0.15,0.08,0.3,0.16,0.46,0.26c1.64,0.92,3.16,1.92,4.57,2.96
		c0.13,0.09,0.26,0.19,0.38,0.29c0.78,0.59,1.54,1.21,2.26,1.84c1.46,1.27,2.79,2.61,4,3.98c2.92,3.34,5.13,6.91,6.8,10.43
		c0.4,0.86,0.78,1.7,1.12,2.55c0.3,0.74,0.59,1.47,0.84,2.2c0.09,0.26,0.19,0.53,0.28,0.78c0.12,0.36,0.25,0.72,0.36,1.08
		c0.22,0.7,0.42,1.38,0.6,2.04c0.04,0.13,0.08,0.27,0.11,0.4c0,0,0.01,0.01,0.01,0.01c0.02,0.08,0.04,0.15,0.06,0.23
		c0.21,0.78,0.39,1.54,0.56,2.27c0.04,0.17,0.07,0.33,0.11,0.5c0.01,0.06,0.02,0.13,0.04,0.19c0.12,0.57,0.22,1.12,0.31,1.65
		c0.02,0.12,0.05,0.25,0.06,0.36c0.05,0.29,0.09,0.57,0.13,0.86c0.04,0.22,0.06,0.43,0.09,0.63c0.03,0.21,0.05,0.41,0.08,0.6
		c0.07,0.57,0.13,1.1,0.18,1.57c0.08,0.83,0.12,1.49,0.14,1.99c0.02,0.46,0.03,0.76,0.03,0.87v0.12c-0.01,0.21-0.02,0.43-0.04,0.64
		c0,0,0,0,0,0.01c-0.02,0.33-0.04,0.66-0.06,1c-0.01,0.16-0.02,0.32-0.04,0.47c-0.01,0.19-0.03,0.37-0.04,0.55
		c-0.01,0.11-0.02,0.23-0.03,0.35c0,0.01-0.01,0.03-0.01,0.04v0.02c-0.02,0.21-0.04,0.43-0.06,0.64c-0.01,0.08-0.02,0.16-0.03,0.24
		c-0.03,0.32-0.07,0.64-0.11,0.95c-0.04,0.32-0.08,0.64-0.13,0.96c-0.01,0.07-0.02,0.15-0.04,0.22c-0.09,0.6-0.19,1.21-0.32,1.82
		c-0.04,0.18-0.07,0.36-0.11,0.54c-0.03,0.14-0.06,0.28-0.09,0.42c-0.02,0.08-0.04,0.15-0.05,0.22c-0.18,0.8-0.39,1.61-0.62,2.43
		c-0.04,0.16-0.09,0.33-0.14,0.49c-0.6,2.04-1.4,4.16-2.47,6.42c-0.46,0.98-0.97,1.99-1.53,3.03c-2.96,5.43-7.49,11.67-14.4,19.08
		c-1.19,1.27-2.45,2.58-3.78,3.92c-0.72,0.72-1.46,1.46-2.22,2.2c-0.3,0.3-0.62,0.6-0.93,0.9c-0.01,0.01-0.01,0.02-0.02,0.02
		c-0.58,0.56-1.17,1.12-1.77,1.69c-0.47,0.45-0.95,0.9-1.44,1.35c-0.14,0.13-0.28,0.25-0.42,0.38c-0.31,0.29-0.62,0.59-0.94,0.88
		c-0.01,0.01-0.02,0.02-0.04,0.04c-0.02,0.02-0.04,0.04-0.06,0.06c-0.7,0.63-1.41,1.28-2.14,1.94c-0.57,0.52-1.16,1.04-1.76,1.57
		c-0.1,0.09-0.21,0.18-0.3,0.27c-0.25,0.22-0.49,0.44-0.74,0.66c-0.07,0.06-0.14,0.12-0.21,0.18c-0.97,0.86-1.97,1.72-3,2.6
		c-0.35,0.3-0.71,0.6-1.07,0.9c-0.07,0.06-0.14,0.12-0.21,0.18c-0.78,0.66-1.58,1.33-2.38,2c-0.64,0.54-1.3,1.08-1.97,1.63
		c-0.02,0.02-0.05,0.04-0.07,0.06l-0.5,0.41c-0.05,0.04-0.09,0.07-0.13,0.11c-0.01,0.01-0.02,0.02-0.03,0.02
		c-0.01,0.01-0.02,0.02-0.03,0.02c-0.04,0.04-0.08,0.06-0.12,0.09c-0.09,0.08-0.18,0.15-0.26,0.22c-0.03,0.02-0.06,0.05-0.09,0.08
		c-0.06,0.05-0.13,0.1-0.2,0.15c-0.01,0.01-0.01,0.02-0.02,0.02c-0.1,0.08-0.19,0.16-0.29,0.23c-0.19,0.16-0.38,0.31-0.57,0.47
		c-0.04,0.04-0.08,0.06-0.11,0.09c-0.01,0-0.01,0.01-0.02,0.01c-0.02,0.02-0.05,0.05-0.08,0.06c-0.17,0.13-0.34,0.28-0.5,0.41
		c-0.05,0.04-0.09,0.08-0.14,0.12c-0.04,0.03-0.06,0.05-0.1,0.08c-0.15-0.14-0.31-0.29-0.46-0.43c-0.01-0.02-0.04-0.03-0.05-0.05
		c-0.02-0.02-0.05-0.05-0.08-0.06c-0.05-0.05-0.1-0.09-0.15-0.14c-0.23-0.21-0.46-0.42-0.68-0.63c-0.13-0.13-0.27-0.25-0.4-0.37
		c-0.01-0.01-0.02-0.02-0.04-0.04c-0.02-0.02-0.04-0.04-0.06-0.06c-0.15-0.14-0.3-0.28-0.45-0.42c-0.08-0.07-0.16-0.14-0.23-0.21
		c-0.01-0.02-0.04-0.04-0.05-0.05c-2.52-2.35-4.89-4.61-7.11-6.78c-0.13-0.13-0.27-0.27-0.4-0.4l-0.14-0.14
		c-0.18-0.17-0.35-0.34-0.52-0.51c-1.11-1.1-2.18-2.17-3.22-3.23c-0.05-0.05-0.11-0.11-0.16-0.16c-0.04-0.04-0.08-0.08-0.11-0.11
		c-0.02-0.02-0.05-0.05-0.07-0.07c-0.03-0.03-0.05-0.06-0.09-0.09c-0.12-0.12-0.24-0.25-0.36-0.36c-0.18-0.18-0.35-0.36-0.53-0.54
		c-0.18-0.18-0.35-0.36-0.53-0.54c-0.27,0.4-0.54,0.81-0.83,1.21c-0.54,0.78-1.1,1.57-1.67,2.37c-0.17,0.23-0.34,0.47-0.51,0.71
		c-0.71,0.98-1.45,1.97-2.21,2.98c0.28,0.28,0.55,0.56,0.83,0.84c0.11,0.11,0.21,0.22,0.32,0.33c0.13,0.14,0.27,0.28,0.4,0.41
		c0.18,0.19,0.37,0.37,0.56,0.56l0.45,0.45c0.84,0.85,1.7,1.7,2.59,2.57c0.32,0.32,0.65,0.64,0.98,0.96
		c1.11,1.08,2.26,2.18,3.44,3.32c0.77,0.73,1.55,1.47,2.35,2.22c0.29,0.27,0.57,0.53,0.86,0.81c0.51,0.47,1.03,0.96,1.56,1.45
		c-0.32,0.29-0.63,0.57-0.93,0.85c-0.11,0.09-0.21,0.19-0.31,0.29c-0.32,0.29-0.64,0.59-0.95,0.88c-0.1,0.09-0.2,0.18-0.29,0.27
		c-0.11,0.11-0.22,0.21-0.33,0.32c-0.11,0.11-0.22,0.21-0.33,0.32c-0.01,0.01-0.02,0.01-0.02,0.02"/>
</g>
<path fill="#FFFFFF" stroke="#FFFFFF" stroke-width="3" stroke-miterlimit="10" d="M369.43,739.06c-1.58-6.85-4.36-13.46-7.82-19.69
	c-9.18-16.5-23.19-30.27-32.63-38.43c-0.03-0.03-0.06-0.06-0.09-0.09c-1.46-1.26-2.8-2.38-4-3.36c-3.26-2.65-5.43-4.23-5.85-4.53
	l-4.36,6.09l-4.37-6.09c-0.41,0.29-2.52,1.83-5.69,4.41c-0.96,0.78-2.02,1.66-3.16,2.64c0,0,0,0-0.01,0
	c-13.36,11.39-37.5,35.23-42.16,62.24c-0.58,3.3-0.86,6.65-0.79,10.03c0.11,5.74,0.78,10.92,1.84,15.6
	c0.04,0.17,0.08,0.35,0.12,0.52c3.4,14.44,10.59,23.98,16.83,29.87c9.31,8.79,21.7,14.13,33.81,14.73c0.76,0.04,1.52,0.06,2.28,0.06
	c0.43,0,0.87,0,1.3-0.02c0.43,0.02,0.87,0.02,1.31,0.02c6.7,0,13.55-1.49,19.98-4.24c0.01-0.01,0.02-0.01,0.03-0.01
	c1.18-0.51,2.34-1.05,3.49-1.64c4.55-2.34,8.82-5.34,12.59-8.88c7.13-6.73,15.51-18.24,18.04-36.39c0.42-3.02,0.68-6.21,0.75-9.6
	C370.95,747.81,370.43,743.39,369.43,739.06z M322.7,801.13c-1.65,0.2-3.32,0.33-4.99,0.38c-0.26,0.01-0.51,0.01-0.77,0.02
	c-0.29,0-0.58,0-0.87,0h-0.28c-0.08,0-0.15,0-0.22,0h-0.25c-0.25,0-0.5,0-0.75,0c-3.96-0.05-7.83-0.5-11.56-1.31
	c-6.37-1.84-12.49-5.3-17.51-10.03c-5.11-4.82-11.02-12.77-13.68-25.08c-0.01-0.04-0.02-0.09-0.03-0.13
	c-0.86-3.86-1.4-8.15-1.49-12.91c-0.02-1.03,0-2.06,0.06-3.08c1.72-29.12,34.83-57.07,44.31-64.5c7.93,6.21,32.34,26.7,41.16,50.28
	c0.81,2.17,1.49,4.37,2.01,6.59c0.05,0.19,0.09,0.38,0.14,0.58c0.82,3.51,1.25,7.06,1.18,10.61c-0.38,19.7-8.41,31.34-15.08,37.64
	C338.05,795.87,330.43,799.71,322.7,801.13z"/>
<g>
	<path fill="#FFFFFF" stroke="#FFFFFF" stroke-miterlimit="10" d="M327.72,678.7c-0.43-0.39-0.85-0.77-1.25-1.14
		c-0.17-0.15-0.33-0.29-0.49-0.44c0.93-0.76,1.86-1.51,2.76-2.26c0.05-0.05,0.1-0.08,0.15-0.13c0.89-0.74,1.78-1.47,2.65-2.19
		c0.96-0.79,1.9-1.58,2.82-2.36c0.49-0.41,0.97-0.82,1.45-1.23c2.08-1.76,4.1-3.49,6.07-5.2c0.32-0.28,0.65-0.56,0.97-0.84
		c0.35-0.3,0.7-0.61,1.04-0.91c0.16-0.15,0.33-0.29,0.49-0.43c0.05-0.05,0.1-0.09,0.15-0.13c0.76-0.67,1.52-1.34,2.26-2
		c0.69-0.61,1.37-1.22,2.05-1.83c0.43-0.39,0.86-0.78,1.29-1.17c0.02-0.02,0.04-0.04,0.06-0.05c0.21-0.19,0.42-0.38,0.63-0.57
		c0.16-0.15,0.32-0.3,0.49-0.45c0.05-0.04,0.09-0.09,0.14-0.13c0.16-0.14,0.32-0.29,0.48-0.43c0.83-0.76,1.64-1.51,2.44-2.26
		c0.02-0.02,0.04-0.04,0.06-0.06c0.22-0.19,0.42-0.39,0.63-0.58c0.27-0.25,0.54-0.5,0.8-0.75c0.29-0.27,0.58-0.55,0.86-0.82
		c0.34-0.32,0.67-0.63,1.01-0.95c0.02-0.02,0.04-0.04,0.05-0.05c0.53-0.5,1.05-1,1.56-1.49c0.04-0.05,0.09-0.09,0.14-0.13
		c0.22-0.21,0.43-0.41,0.64-0.62c0.05-0.05,0.1-0.09,0.15-0.14c0.98-0.95,1.94-1.89,2.89-2.83c0.06-0.06,0.11-0.12,0.17-0.17
		c0.28-0.28,0.57-0.56,0.84-0.83c0.87-0.87,1.72-1.73,2.55-2.57c0.25-0.26,0.51-0.52,0.76-0.77c0.03-0.03,0.05-0.06,0.08-0.08
		c0.02-0.02,0.04-0.05,0.06-0.07c8.53-8.77,15.36-16.79,20.8-24.29c8.19-11.25,13.3-21.34,16.39-30.77c0.32-0.97,0.62-1.94,0.89-2.9
		c0.02-0.07,0.04-0.15,0.06-0.22c0.08-0.28,0.16-0.55,0.23-0.83c0.22-0.79,0.42-1.58,0.6-2.36c0.01-0.05,0.03-0.1,0.04-0.15
		c0.53-2.18,0.96-4.32,1.3-6.42c0.11-0.68,0.22-1.35,0.31-2.03c0-0.01,0-0.01,0-0.01c0.03-0.2,0.05-0.4,0.08-0.59
		c0.01-0.06,0.02-0.12,0.03-0.19c0.03-0.23,0.06-0.46,0.09-0.69c0.07-0.55,0.13-1.08,0.19-1.62c0-0.02,0.01-0.04,0.01-0.06
		c0.05-0.42,0.09-0.84,0.13-1.26c0.06-0.55,0.1-1.1,0.15-1.64c0-0.02,0.01-0.05,0.01-0.07c0.02-0.22,0.04-0.45,0.05-0.66
		c0.03-0.45,0.06-0.89,0.09-1.33c0.06-0.94,0.11-1.88,0.15-2.81c0.01-0.11,0.01-0.21,0.02-0.31v-0.58
		c-0.01-0.52-0.03-1.59-0.12-3.15c-0.05-0.75-0.11-1.61-0.2-2.57c-0.04-0.47-0.09-0.98-0.15-1.51c0-0.01,0-0.01,0-0.01
		c-0.14-1.24-0.31-2.62-0.54-4.1c-0.03-0.18-0.05-0.36-0.09-0.55c-0.04-0.3-0.09-0.6-0.15-0.91c-0.04-0.26-0.08-0.52-0.13-0.79
		c-0.05-0.29-0.1-0.59-0.16-0.89c-0.06-0.36-0.13-0.72-0.21-1.1c-0.06-0.33-0.13-0.67-0.2-1.01c-0.06-0.3-0.12-0.62-0.19-0.93
		c-0.06-0.29-0.12-0.57-0.18-0.86c-0.05-0.22-0.1-0.44-0.15-0.66c-0.16-0.72-0.33-1.46-0.52-2.21c-0.01-0.02-0.02-0.05-0.02-0.07
		c-0.14-0.57-0.29-1.16-0.45-1.75c-0.29-1.08-0.6-2.2-0.94-3.33c-0.26-0.88-0.55-1.78-0.85-2.68c-0.35-1.05-0.72-2.12-1.11-3.2
		c-0.21-0.58-0.43-1.17-0.66-1.76c-2.17-5.59-5.02-11.45-8.76-17.23c-0.09-0.14-0.17-0.28-0.26-0.42
		c-4.13-6.31-9.35-12.51-15.87-18.08c-0.67-0.57-1.36-1.14-2.05-1.7c-0.89-0.72-1.8-1.42-2.73-2.1c-1.24-0.93-2.52-1.82-3.84-2.69
		c-0.96-0.63-1.94-1.25-2.95-1.85c-0.87-0.52-1.76-1.04-2.67-1.54c-0.03-0.02-0.06-0.04-0.09-0.05c-0.22-0.13-0.43-0.25-0.65-0.36
		c-1.41-0.76-2.87-1.5-4.36-2.2c-0.02-0.01-0.05-0.02-0.07-0.04c-0.02-0.01-0.04-0.02-0.06-0.03c-0.9-0.42-1.81-0.84-2.74-1.24
		c-3.99-1.73-8.26-3.26-12.81-4.54c-3.79-1.07-7.79-1.98-11.99-2.7c-0.59-0.11-1.19-0.21-1.8-0.3c-0.18-0.04-0.37-0.06-0.56-0.09
		c-0.58-0.09-1.16-0.17-1.73-0.23c-0.18-0.02-0.37-0.05-0.55-0.06c-0.12-0.02-0.24-0.03-0.36-0.04c-1.47-0.16-2.94-0.26-4.4-0.32
		c-0.53-0.02-1.05-0.04-1.57-0.04c-0.3-0.01-0.59-0.01-0.89-0.01c-0.28,0-0.55,0-0.83,0.01c-0.46,0-0.91,0.01-1.36,0.02
		c-2.22,0.06-4.42,0.22-6.58,0.46c-0.34,0.03-0.67,0.06-1.01,0.11c-0.06,0.01-0.12,0.01-0.18,0.02c-0.22,0.02-0.44,0.05-0.66,0.08
		c-0.01,0-0.01,0-0.02,0.01c-2.53,0.3-5.02,0.69-7.46,1.12c-5.63,1-12.26,2.79-19.31,5.59c-0.13,0.05-0.26,0.11-0.39,0.16
		c-1.15,0.46-2.31,0.96-3.48,1.48c-0.02,0.01-0.04,0.02-0.06,0.02c-2.5,1.12-5.03,2.36-7.57,3.75c-0.16,0.08-0.32,0.17-0.48,0.26
		c-1.25,0.69-2.49,1.41-3.74,2.16c-0.19,0.12-0.38,0.23-0.58,0.36c-0.44,0.27-0.89,0.55-1.33,0.83c-4.98,3.18-9.88,6.95-14.48,11.4
		c-0.93,0.9-1.85,1.83-2.75,2.78c-0.01,0.02-0.02,0.02-0.03,0.04c-3.09,3.29-6,6.9-8.62,10.88c-0.74,1.1-1.44,2.21-2.12,3.36
		c-3.35,5.63-6.13,11.94-8.13,18.89c-0.32,1.12-0.62,2.26-0.9,3.41c-0.18,0.73-0.34,1.45-0.49,2.19c-0.08,0.38-0.16,0.75-0.23,1.13
		c-0.06,0.3-0.12,0.6-0.17,0.9c-0.06,0.31-0.11,0.62-0.17,0.93c-0.06,0.33-0.11,0.66-0.17,0.99c-0.02,0.11-0.04,0.23-0.05,0.34
		c-0.06,0.35-0.11,0.7-0.16,1.06c-0.05,0.38-0.11,0.76-0.16,1.13c-0.01,0.02-0.01,0.04-0.01,0.06c-0.01,0.01-0.01,0.02-0.01,0.03
		c-0.02,0.17-0.04,0.33-0.06,0.5v0.02c-0.02,0.18-0.04,0.35-0.06,0.52c-0.09,0.76-0.17,1.51-0.23,2.27v0.03
		c-0.02,0.15-0.03,0.29-0.04,0.45c-0.04,0.42-0.07,0.84-0.1,1.26c-0.09,1.27-0.15,2.54-0.17,3.82c-0.01,0.11-0.01,0.22-0.01,0.33
		c-0.01,0.49-0.02,0.98-0.02,1.47c0,1.32,0.03,2.64,0.1,3.95c0.01,0.21,0.02,0.4,0.03,0.61c0.02,0.46,0.05,0.93,0.09,1.39
		c0.01,0.14,0.02,0.28,0.03,0.42c0.06,0.88,0.14,1.75,0.23,2.63c0.09,0.87,0.19,1.74,0.31,2.61c0.05,0.4,0.11,0.8,0.17,1.21
		c0.06,0.42,0.13,0.84,0.2,1.27c0.02,0.16,0.05,0.33,0.08,0.49c0.04,0.25,0.09,0.5,0.13,0.74c0.05,0.29,0.1,0.59,0.16,0.88
		c0.16,0.88,0.35,1.76,0.53,2.63c0.21,0.99,0.44,1.98,0.69,2.96c0.1,0.39,0.21,0.78,0.31,1.17c0.11,0.43,0.23,0.86,0.35,1.28
		c0.06,0.23,0.13,0.46,0.2,0.69c1.24,4.29,2.82,8.78,4.89,13.51c-0.01,0.01,0,0.01,0.01,0.02c0.59,1.35,1.23,2.73,1.91,4.12
		c5.12,10.55,12.73,22.3,24.33,36.23c2.19,2.63,4.52,5.34,7.01,8.13c0.97,1.08,1.95,2.18,2.97,3.3c1.31,1.44,2.67,2.91,4.07,4.4
		c0.3,0.32,0.6,0.64,0.91,0.97c0.45,0.47,0.9,0.95,1.35,1.42c0.19,0.21,0.38,0.4,0.57,0.6c0.07,0.07,0.14,0.14,0.21,0.22
		c0.47,0.49,0.94,0.99,1.43,1.49c1.19,1.24,2.42,2.49,3.67,3.76c0.18,0.18,0.35,0.36,0.53,0.54c0.22,0.22,0.44,0.45,0.66,0.67
		c0.31,0.31,0.62,0.62,0.92,0.93c0.25,0.25,0.5,0.5,0.75,0.74c1.39,1.39,2.81,2.8,4.27,4.22c0.53,0.52,1.07,1.05,1.61,1.58
		c1.84,1.78,3.73,3.6,5.67,5.45c1.27,1.21,2.56,2.42,3.88,3.65c0.47,0.44,0.94,0.88,1.42,1.33c0.84,0.79,1.7,1.58,2.56,2.38
		c-0.51,0.47-1.03,0.93-1.53,1.4c-0.17,0.15-0.34,0.31-0.51,0.47 M309.68,481.48c0.1-0.02,0.21-0.03,0.31-0.04h0.02
		c0.07-0.01,0.14-0.02,0.21-0.02c0.4-0.05,0.82-0.09,1.21-0.13c1.94-0.19,3.86-0.32,5.74-0.36h0.04c0.42-0.01,0.83-0.01,1.24-0.01
		c0.39,0,0.77,0.01,1.16,0.01h0.05c1.28,0.02,2.54,0.09,3.8,0.22c0.39,0.04,0.77,0.08,1.16,0.13c0.13,0.02,0.27,0.04,0.4,0.05
		c0.01,0,0.01,0,0.01,0c0.17,0.02,0.33,0.04,0.49,0.06c0.15,0.02,0.29,0.04,0.44,0.06c0.37,0.06,0.75,0.12,1.12,0.18
		c3.97,0.65,7.68,1.46,11.18,2.43c2.12,0.59,4.16,1.23,6.11,1.93c1.61,0.57,3.17,1.18,4.69,1.81c1,0.43,1.98,0.87,2.94,1.32
		c0.14,0.06,0.28,0.13,0.41,0.19c0.9,0.42,1.77,0.86,2.62,1.31c0.44,0.23,0.87,0.46,1.3,0.69c0.01,0.01,0.01,0.01,0.02,0.01
		c0.25,0.14,0.5,0.28,0.75,0.42c2.71,1.52,5.21,3.15,7.53,4.87c0.21,0.16,0.43,0.31,0.63,0.48c1.3,0.98,2.54,1.99,3.73,3.03
		c2.41,2.09,4.6,4.3,6.59,6.56c4.81,5.49,8.45,11.35,11.21,17.13c0.67,1.41,1.29,2.81,1.86,4.19c0.5,1.22,0.97,2.42,1.39,3.62
		c0.16,0.43,0.31,0.87,0.45,1.3c0.21,0.6,0.4,1.18,0.58,1.77c0.36,1.14,0.7,2.26,0.99,3.36c0.06,0.22,0.12,0.45,0.18,0.66
		c0,0.01,0.01,0.01,0.01,0.02c0.03,0.13,0.07,0.25,0.1,0.38c0.35,1.29,0.65,2.54,0.91,3.74c0.06,0.28,0.12,0.55,0.18,0.82
		c0.02,0.11,0.04,0.21,0.06,0.3c0.19,0.94,0.36,1.84,0.52,2.71c0.03,0.2,0.07,0.4,0.1,0.59c0.08,0.48,0.15,0.95,0.22,1.41
		c0.05,0.36,0.1,0.7,0.15,1.04c0.05,0.34,0.09,0.67,0.13,0.99c0.12,0.94,0.22,1.8,0.29,2.58c0.13,1.35,0.19,2.46,0.24,3.26
		c0.03,0.76,0.04,1.25,0.05,1.44v0.06c0,0.05-0.01,0.09-0.01,0.13c-0.02,0.35-0.03,0.7-0.05,1.05c0,0,0,0,0,0.01
		c-0.03,0.55-0.06,1.1-0.1,1.64c-0.01,0.26-0.03,0.52-0.05,0.78c-0.02,0.3-0.05,0.6-0.07,0.9c-0.02,0.19-0.03,0.38-0.05,0.57
		c0,0.02-0.01,0.05-0.01,0.07c-0.01,0.01-0.01,0.03-0.01,0.04c-0.03,0.35-0.06,0.7-0.1,1.04c-0.02,0.13-0.03,0.26-0.04,0.39
		c-0.05,0.53-0.12,1.05-0.18,1.58c-0.06,0.52-0.14,1.04-0.22,1.57c-0.02,0.12-0.04,0.24-0.05,0.36c-0.15,0.99-0.32,1.99-0.52,2.99
		c-0.06,0.29-0.12,0.59-0.18,0.89c-0.05,0.23-0.09,0.45-0.15,0.68c-0.03,0.12-0.05,0.25-0.08,0.37c-0.29,1.31-0.63,2.65-1.02,4
		c-0.08,0.27-0.16,0.53-0.24,0.8c-0.99,3.35-2.31,6.84-4.08,10.56c-0.75,1.61-1.59,3.27-2.53,4.97
		c-4.89,8.92-12.35,19.19-23.74,31.36c-1.96,2.09-4.03,4.24-6.23,6.44c-1.18,1.19-2.4,2.4-3.66,3.62c-0.5,0.49-1.01,0.99-1.52,1.48
		c-0.02,0.01-0.03,0.03-0.04,0.04c-0.95,0.92-1.93,1.85-2.93,2.79c-0.78,0.73-1.57,1.47-2.36,2.21c-0.23,0.21-0.45,0.42-0.68,0.63
		c-0.51,0.47-1.03,0.96-1.56,1.44c-0.02,0.02-0.04,0.04-0.06,0.06c-0.04,0.04-0.07,0.06-0.11,0.1c-1.15,1.04-2.33,2.11-3.53,3.19
		c-0.95,0.85-1.92,1.71-2.9,2.58c-0.17,0.15-0.33,0.3-0.5,0.45c-0.4,0.36-0.82,0.72-1.23,1.08c-0.11,0.1-0.23,0.2-0.34,0.3
		c-1.6,1.4-3.25,2.82-4.95,4.27c-0.58,0.49-1.17,0.98-1.75,1.48c-0.12,0.1-0.24,0.2-0.36,0.3c-1.29,1.09-2.59,2.19-3.93,3.3
		c-1.06,0.89-2.14,1.78-3.25,2.69c-0.04,0.04-0.08,0.06-0.12,0.1l-0.83,0.67c-0.08,0.06-0.15,0.12-0.23,0.19
		c-0.02,0.01-0.03,0.03-0.05,0.04c-0.02,0.01-0.03,0.03-0.05,0.04c-0.06,0.05-0.13,0.11-0.19,0.16c-0.15,0.12-0.29,0.25-0.44,0.36
		c-0.05,0.04-0.1,0.09-0.16,0.13c-0.1,0.08-0.22,0.17-0.32,0.26c-0.02,0.01-0.03,0.02-0.04,0.04c-0.16,0.13-0.32,0.26-0.48,0.39
		c-0.31,0.26-0.63,0.51-0.94,0.77c-0.06,0.05-0.13,0.1-0.19,0.15c-0.01,0.01-0.02,0.02-0.03,0.02c-0.04,0.04-0.09,0.07-0.13,0.11
		c-0.28,0.22-0.56,0.45-0.83,0.67c-0.08,0.06-0.16,0.13-0.24,0.19c-0.05,0.05-0.1,0.08-0.16,0.13c-0.25-0.23-0.51-0.47-0.76-0.7
		c-0.03-0.03-0.06-0.05-0.09-0.08c-0.04-0.04-0.08-0.08-0.12-0.11c-0.08-0.08-0.16-0.15-0.24-0.22c-0.38-0.35-0.75-0.7-1.12-1.04
		c-0.22-0.21-0.44-0.4-0.65-0.6c-0.02-0.02-0.04-0.04-0.06-0.06c-0.04-0.04-0.08-0.07-0.11-0.11c-0.25-0.23-0.49-0.46-0.73-0.68
		c-0.12-0.12-0.25-0.23-0.38-0.35c-0.03-0.03-0.06-0.05-0.09-0.08c-4.15-3.86-8.05-7.58-11.72-11.16c-0.22-0.22-0.44-0.43-0.66-0.65
		c-0.08-0.08-0.16-0.15-0.24-0.23c-0.29-0.28-0.57-0.56-0.85-0.84c-1.83-1.81-3.6-3.57-5.31-5.31c-0.09-0.09-0.18-0.18-0.26-0.27
		c-0.06-0.06-0.12-0.12-0.18-0.19c-0.04-0.04-0.08-0.08-0.11-0.11c-0.05-0.05-0.09-0.09-0.14-0.14c-0.2-0.2-0.4-0.4-0.6-0.6
		c-0.29-0.3-0.58-0.59-0.87-0.89c-0.4-0.42-0.81-0.83-1.21-1.25c-1.33-1.36-2.61-2.71-3.87-4.03c-0.1-0.11-0.19-0.21-0.29-0.31
		c-0.1-0.1-0.19-0.2-0.29-0.3c-0.03-0.04-0.07-0.08-0.1-0.11c-0.89-0.95-1.77-1.89-2.62-2.81c-8.81-9.53-15.7-17.91-21.12-25.4
		c-5.64-7.79-9.68-14.6-12.66-20.74c-0.01-0.02-0.02-0.03-0.03-0.05c-0.49-1.01-0.95-2.01-1.39-2.98c-2.06-4.63-3.53-8.9-4.68-13.02
		c-0.06-0.23-0.13-0.46-0.19-0.7c-0.01-0.04-0.02-0.08-0.03-0.12c-0.03-0.09-0.05-0.19-0.08-0.28c-0.21-0.78-0.4-1.56-0.58-2.34
		c-0.14-0.62-0.28-1.24-0.4-1.86c-0.05-0.23-0.1-0.46-0.14-0.7c-0.08-0.4-0.16-0.81-0.23-1.22c-0.07-0.39-0.13-0.77-0.19-1.16
		c-0.05-0.3-0.1-0.62-0.14-0.92c-0.04-0.27-0.08-0.55-0.11-0.82c-0.02-0.1-0.03-0.19-0.04-0.29c-0.05-0.37-0.09-0.74-0.13-1.11
		s-0.08-0.73-0.12-1.1c-0.03-0.3-0.06-0.59-0.08-0.89c-0.03-0.26-0.05-0.52-0.06-0.78c-0.02-0.26-0.04-0.52-0.05-0.77
		c-0.01-0.16-0.02-0.33-0.03-0.5c-0.04-0.74-0.08-1.48-0.1-2.21c-0.02-0.63-0.03-1.26-0.03-1.89c0-0.73,0.01-1.47,0.04-2.2
		c0-0.08,0-0.15,0.01-0.22c0-0.19,0.01-0.39,0.02-0.58c0.02-0.42,0.04-0.84,0.07-1.26c0.02-0.3,0.04-0.59,0.06-0.89
		c0.02-0.29,0.05-0.59,0.08-0.89c0.03-0.3,0.06-0.62,0.09-0.92c0.01-0.11,0.02-0.22,0.03-0.33c0.01-0.09,0.02-0.19,0.03-0.28
		c0.02-0.18,0.04-0.35,0.06-0.53c0.02-0.18,0.04-0.36,0.06-0.55c0.05-0.41,0.11-0.83,0.17-1.24c-0.01-0.01-0.01-0.01,0-0.02
		c0-0.01,0-0.03,0.01-0.04c0.04-0.3,0.09-0.61,0.14-0.91c0.02-0.15,0.05-0.3,0.08-0.45c0.1-0.62,0.22-1.23,0.34-1.84
		c0.01-0.04,0.02-0.08,0.03-0.12c0.03-0.18,0.07-0.35,0.1-0.52c0.01-0.04,0.02-0.07,0.02-0.11c0.02-0.06,0.03-0.13,0.04-0.19v-0.01
		c0.08-0.35,0.16-0.7,0.24-1.05c0.04-0.19,0.09-0.37,0.13-0.55c0.32-1.33,0.68-2.63,1.07-3.9c0.41-1.35,0.86-2.68,1.35-3.96
		c0.32-0.86,0.66-1.69,1.01-2.52c1.99-4.68,4.43-8.9,7.21-12.74c1.57-2.15,3.23-4.17,4.99-6.06c2.22-2.43,4.59-4.64,7.06-6.68
		c2.71-2.25,5.54-4.27,8.42-6.08c0.14-0.09,0.28-0.18,0.42-0.26c0.5-0.31,0.99-0.61,1.49-0.91c0,0,0.01,0,0.01-0.01
		c0.73-0.44,1.47-0.86,2.21-1.27c0.17-0.09,0.34-0.19,0.51-0.28c2.14-1.18,4.28-2.25,6.41-3.21c0.5-0.22,0.99-0.44,1.48-0.65
		c0.72-0.31,1.44-0.61,2.16-0.9c5.29-2.12,10.35-3.58,14.63-4.48c0.77-0.16,1.5-0.3,2.21-0.43
		C305.02,482.11,307.36,481.75,309.68,481.48z"/>
</g>
<path fill="#FFFFFF" stroke="#FFFFFF" stroke-width="3.4" stroke-miterlimit="10" d="M255.51,680.4c-1.16-5.02-3.19-9.87-5.73-14.43
	c-6.73-12.09-17-22.18-23.91-28.17c-0.02-0.02-0.05-0.04-0.07-0.06c-1.07-0.92-2.05-1.75-2.93-2.46c-2.39-1.94-3.98-3.1-4.28-3.32
	l-3.2,4.46l-3.2-4.46c-0.3,0.21-1.85,1.34-4.17,3.23c-0.7,0.57-1.48,1.22-2.32,1.93c0,0,0,0-0.01,0
	c-9.8,8.35-27.48,25.82-30.9,45.62c-0.42,2.42-0.63,4.87-0.58,7.35c0.08,4.2,0.57,8,1.35,11.43c0.03,0.13,0.06,0.26,0.09,0.38
	c2.49,10.58,7.76,17.58,12.33,21.89c6.82,6.44,15.9,10.36,24.78,10.8c0.56,0.03,1.12,0.04,1.67,0.04c0.32,0,0.64,0,0.96-0.02
	c0.32,0.01,0.64,0.02,0.96,0.02c4.91,0,9.93-1.09,14.64-3.11c0.01-0.01,0.02-0.01,0.02-0.01c0.86-0.37,1.71-0.77,2.56-1.21
	c3.34-1.71,6.47-3.91,9.23-6.51c5.23-4.93,11.37-13.37,13.22-26.67c0.31-2.21,0.5-4.55,0.55-7.04
	C256.62,686.81,256.24,683.57,255.51,680.4z M221.25,725.89c-1.21,0.15-2.43,0.24-3.66,0.28c-0.19,0.01-0.37,0.01-0.56,0.01
	c-0.21,0-0.42,0-0.64,0h-0.2c-0.06,0-0.11,0-0.16,0h-0.18c-0.18,0-0.36,0-0.55,0c-2.91-0.03-5.74-0.37-8.48-0.96
	c-4.67-1.35-9.15-3.88-12.83-7.35c-3.74-3.53-8.07-9.36-10.02-18.38c-0.01-0.03-0.01-0.07-0.02-0.1c-0.63-2.83-1.03-5.97-1.09-9.46
	c-0.01-0.76,0-1.51,0.04-2.26c1.26-21.34,25.53-41.83,32.48-47.27c5.81,4.55,23.71,19.57,30.17,36.85c0.6,1.59,1.09,3.2,1.47,4.83
	c0.04,0.14,0.07,0.28,0.1,0.42c0.6,2.57,0.91,5.17,0.86,7.78c-0.28,14.44-6.17,22.97-11.06,27.58
	C232.5,722.03,226.92,724.85,221.25,725.89z"/>
<path fill="#FFFFFF" stroke="#FFFFFF" stroke-width="3.4" stroke-miterlimit="10" d="M452.42,680.4c-1.16-5.02-3.19-9.87-5.73-14.43
	c-6.73-12.09-17-22.18-23.91-28.17c-0.02-0.02-0.05-0.04-0.07-0.06c-1.07-0.92-2.05-1.75-2.93-2.46c-2.39-1.94-3.98-3.1-4.28-3.32
	l-3.2,4.46l-3.2-4.46c-0.3,0.21-1.85,1.34-4.17,3.23c-0.7,0.57-1.48,1.22-2.32,1.93c0,0,0,0-0.01,0
	c-9.8,8.35-27.48,25.82-30.9,45.62c-0.42,2.42-0.63,4.87-0.58,7.35c0.08,4.2,0.57,8,1.35,11.43c0.03,0.13,0.06,0.26,0.09,0.38
	c2.49,10.58,7.76,17.58,12.33,21.89c6.82,6.44,15.9,10.36,24.78,10.8c0.56,0.03,1.12,0.04,1.67,0.04c0.32,0,0.64,0,0.96-0.02
	c0.32,0.01,0.64,0.02,0.96,0.02c4.91,0,9.93-1.09,14.64-3.11c0.01-0.01,0.02-0.01,0.02-0.01c0.86-0.37,1.71-0.77,2.56-1.21
	c3.34-1.71,6.47-3.91,9.23-6.51c5.23-4.93,11.37-13.37,13.22-26.67c0.31-2.21,0.5-4.55,0.55-7.04
	C453.53,686.81,453.15,683.57,452.42,680.4z M418.16,725.89c-1.21,0.15-2.43,0.24-3.66,0.28c-0.19,0.01-0.37,0.01-0.56,0.01
	c-0.21,0-0.42,0-0.64,0h-0.2c-0.06,0-0.11,0-0.16,0h-0.18c-0.18,0-0.36,0-0.55,0c-2.91-0.03-5.74-0.37-8.48-0.96
	c-4.67-1.35-9.15-3.88-12.83-7.35c-3.74-3.53-8.07-9.36-10.02-18.38c-0.01-0.03-0.01-0.07-0.02-0.1c-0.63-2.83-1.03-5.97-1.09-9.46
	c-0.01-0.76,0-1.51,0.05-2.26c1.26-21.34,25.53-41.83,32.48-47.27c5.81,4.55,23.71,19.57,30.17,36.85c0.6,1.59,1.09,3.2,1.47,4.83
	c0.04,0.14,0.07,0.28,0.1,0.42c0.6,2.57,0.91,5.17,0.86,7.78c-0.28,14.44-6.17,22.97-11.06,27.58
	C429.42,722.03,423.83,724.85,418.16,725.89z"/>
<g>
</g>
<g>
</g>
<g>
</g>
<g>
</g>
<g>
</g>
<g>
</g>
<g>
</g>
<g>
</g>
<g>
</g>
<g>
</g>
<g>
</g>
<g>
</g>
<g>
</g>
<g>
</g>
<g>
</g>
</svg>
