<?xml version="1.0" encoding="utf-8"?>
<!-- Generator: Adobe Illustrator 23.0.1, SVG Export Plug-In . SVG Version: 6.00 Build 0)  -->
<svg version="1.1" id="Layer_1" xmlns="http://www.w3.org/2000/svg" xmlns:xlink="http://www.w3.org/1999/xlink" x="0px" y="0px"
	 viewBox="0 0 1280 1280" enable-background="new 0 0 1280 1280" xml:space="preserve">
<g>
	<g>
		<path fill="#FFFFFF" stroke="#FFFFFF" stroke-miterlimit="10" d="M577.28,539.93h52.76c10.43,0,18.84,2.94,25.22,8.82
			c6.39,5.88,9.58,14.14,9.58,24.78c0,9.15-2.85,17.12-8.54,23.9c-5.69,6.78-14.45,10.18-26.26,10.18h-36.87v49.56h-15.88V539.93z
			 M639.22,556.06c-3.51-1.65-8.33-2.47-14.45-2.47h-31.61v40.63h31.61c7.13,0,12.92-1.52,17.36-4.55
			c4.44-3.03,6.66-8.38,6.66-16.04C648.79,564.99,645.6,559.14,639.22,556.06z"/>
		<path fill="#FFFFFF" stroke="#FFFFFF" stroke-miterlimit="10" d="M781.37,556.69c7.77,10.38,11.65,23.65,11.65,39.83
			c0,17.51-4.44,32.06-13.33,43.66c-10.43,13.62-25.3,20.43-44.62,20.43c-18.04,0-32.22-5.96-42.54-17.88
			c-9.21-11.49-13.81-26.02-13.81-43.58c0-15.86,3.94-29.42,11.81-40.7c10.11-14.47,25.06-21.71,44.86-21.71
			C756.09,536.74,771.42,543.39,781.37,556.69z M767.36,631.36c6.25-10.03,9.38-21.56,9.38-34.6c0-13.78-3.61-24.87-10.81-33.28
			c-7.21-8.41-17.07-12.61-29.57-12.61c-12.13,0-22.03,4.16-29.69,12.49c-7.66,8.33-11.49,20.61-11.49,36.83
			c0,12.98,3.28,23.93,9.86,32.84c6.57,8.91,17.23,13.37,31.97,13.37C750.98,646.4,761.11,641.39,767.36,631.36z"/>
		<path fill="#FFFFFF" stroke="#FFFFFF" stroke-miterlimit="10" d="M813.45,539.93h85.48v14.37h-70v35.6h64.73v13.57h-64.73v39.75
			h71.19v13.97h-86.68V539.93z"/>
		<path fill="#FFFFFF" stroke="#FFFFFF" stroke-miterlimit="10" d="M1006.28,539.93v13.97h-39.51v103.28h-16.12V553.9h-39.51v-13.97
			H1006.28z"/>
		<path fill="#FFFFFF" stroke="#FFFFFF" stroke-miterlimit="10" d="M1031.18,619.35c0.37,6.65,1.94,12.05,4.71,16.2
			c5.27,7.77,14.55,11.65,27.85,11.65c5.96,0,11.39-0.85,16.28-2.55c9.47-3.3,14.21-9.2,14.21-17.72c0-6.39-2-10.93-5.99-13.65
			c-4.04-2.66-10.38-4.97-19-6.94l-15.88-3.59c-10.38-2.34-17.72-4.92-22.03-7.74c-7.45-4.9-11.17-12.21-11.17-21.95
			c0-10.54,3.64-19.18,10.93-25.94c7.29-6.76,17.61-10.14,30.97-10.14c12.29,0,22.73,2.97,31.33,8.9
			c8.59,5.93,12.89,15.42,12.89,28.45h-14.92c-0.8-6.28-2.5-11.09-5.11-14.45c-4.84-6.12-13.06-9.18-24.66-9.18
			c-9.37,0-16.1,1.97-20.19,5.91c-4.1,3.94-6.15,8.51-6.15,13.73c0,5.75,2.39,9.95,7.18,12.61c3.14,1.7,10.24,3.83,21.31,6.39
			l16.44,3.75c7.93,1.81,14.05,4.28,18.36,7.42c7.45,5.48,11.17,13.44,11.17,23.86c0,12.98-4.72,22.27-14.17,27.85
			c-9.45,5.59-20.42,8.38-32.92,8.38c-14.58,0-25.99-3.72-34.24-11.17c-8.25-7.39-12.29-17.42-12.13-30.09H1031.18z"/>
	</g>
	<g>
		<path fill="#FFFFFF" stroke="#FFFFFF" stroke-miterlimit="10" d="M601.98,712.1c2.6,1.86,4.05,3.98,4.34,6.35h-4.92
			c-0.56-1.8-1.67-3.23-3.33-4.28s-4-1.58-7.01-1.58c-3.67,0-6.63,0.97-8.89,2.9c-2.26,1.93-3.39,4.9-3.39,8.89
			c0,3.27,1.02,5.92,3.06,7.96c2.04,2.03,5.08,3.05,9.12,3.05c3.72,0,6.55-1.07,8.49-3.21c1.03-1.13,1.8-2.61,2.31-4.45h4.92
			c-0.44,2.94-1.89,5.41-4.36,7.4c-2.96,2.4-6.95,3.59-11.97,3.59c-4.33,0-7.96-0.98-10.9-2.95c-3.87-2.6-5.81-6.61-5.81-12.04
			c0-4.12,1.45-7.5,4.36-10.14c3.14-2.87,7.48-4.3,13.01-4.3C595.72,709.3,599.38,710.24,601.98,712.1z"/>
		<path fill="#FFFFFF" stroke="#FFFFFF" stroke-miterlimit="10" d="M618.29,710.06v17.27c0,2.03,0.51,3.71,1.52,5.06
			c1.5,2.03,4.04,3.04,7.61,3.04c4.28,0,7.18-1.1,8.72-3.29c0.83-1.19,1.24-2.79,1.24-4.81v-17.27h5.12v15.69
			c0,3.44-0.62,6.08-1.85,7.93c-2.27,3.37-6.54,5.06-12.83,5.06c-6.29,0-10.56-1.69-12.8-5.06c-1.23-1.85-1.85-4.5-1.85-7.93v-15.69
			H618.29z"/>
		<path fill="#FFFFFF" stroke="#FFFFFF" stroke-miterlimit="10" d="M650.31,710.06h5.05v24.61h18.87V738h-23.91V710.06z"/>
		<path fill="#FFFFFF" stroke="#FFFFFF" stroke-miterlimit="10" d="M702.47,710.06v3.33h-12.55V738h-5.12v-24.61h-12.55v-3.33
			H702.47z"/>
		<path fill="#FFFFFF" stroke="#FFFFFF" stroke-miterlimit="10" d="M712.56,710.06v17.27c0,2.03,0.51,3.71,1.52,5.06
			c1.5,2.03,4.04,3.04,7.61,3.04c4.28,0,7.18-1.1,8.72-3.29c0.83-1.19,1.24-2.79,1.24-4.81v-17.27h5.12v15.69
			c0,3.44-0.62,6.08-1.85,7.93c-2.27,3.37-6.54,5.06-12.83,5.06c-6.29,0-10.56-1.69-12.8-5.06c-1.23-1.85-1.85-4.5-1.85-7.93v-15.69
			H712.56z"/>
		<path fill="#FFFFFF" stroke="#FFFFFF" stroke-miterlimit="10" d="M745.2,710.06h17.24c2.84,0,5.18,0.31,7.02,0.93
			c3.5,1.19,5.25,3.39,5.25,6.6c0,1.67-0.46,3.04-1.38,4.11c-0.92,1.07-2.21,1.92-3.87,2.57c1.45,0.44,2.55,1.03,3.28,1.75
			s1.15,1.9,1.23,3.52l0.18,3.75c0.05,1.06,0.17,1.86,0.36,2.38c0.3,0.89,0.84,1.46,1.62,1.71V738h-6.19
			c-0.17-0.24-0.3-0.55-0.41-0.93c-0.1-0.38-0.19-1.12-0.25-2.21l-0.3-4.66c-0.12-1.83-1.02-3.05-2.71-3.67
			c-0.96-0.34-2.48-0.51-4.54-0.51h-11.49V738h-5.05V710.06z M761.91,722.86c2.37,0,4.24-0.35,5.62-1.06s2.07-1.99,2.07-3.84
			c0-1.99-0.96-3.35-2.89-4.07c-1.03-0.38-2.41-0.57-4.13-0.57h-12.32v9.55H761.91z"/>
		<path fill="#FFFFFF" stroke="#FFFFFF" stroke-miterlimit="10" d="M782.57,710.06h27.16v3.42h-22.24v8.48h20.56v3.23h-20.56v9.47
			h22.62V738h-27.54V710.06z"/>
		<path fill="#FFFFFF" stroke="#FFFFFF" stroke-miterlimit="10" d="M857.83,712.1c2.6,1.86,4.05,3.98,4.34,6.35h-4.92
			c-0.56-1.8-1.67-3.23-3.33-4.28s-4-1.58-7.01-1.58c-3.67,0-6.63,0.97-8.89,2.9c-2.26,1.93-3.38,4.9-3.38,8.89
			c0,3.27,1.02,5.92,3.06,7.96c2.04,2.03,5.08,3.05,9.12,3.05c3.72,0,6.55-1.07,8.5-3.21c1.03-1.13,1.8-2.61,2.31-4.45h4.92
			c-0.44,2.94-1.89,5.41-4.36,7.4c-2.96,2.4-6.95,3.59-11.97,3.59c-4.33,0-7.96-0.98-10.9-2.95c-3.87-2.6-5.81-6.61-5.81-12.04
			c0-4.12,1.45-7.5,4.36-10.14c3.14-2.87,7.48-4.3,13.01-4.3C851.57,709.3,855.23,710.24,857.83,712.1z"/>
		<path fill="#FFFFFF" stroke="#FFFFFF" stroke-miterlimit="10" d="M869.27,710.06h17.24c2.84,0,5.18,0.31,7.02,0.93
			c3.5,1.19,5.25,3.39,5.25,6.6c0,1.67-0.46,3.04-1.38,4.11c-0.92,1.07-2.21,1.92-3.87,2.57c1.45,0.44,2.55,1.03,3.28,1.75
			s1.15,1.9,1.23,3.52l0.18,3.75c0.05,1.06,0.17,1.86,0.36,2.38c0.3,0.89,0.84,1.46,1.62,1.71V738h-6.19
			c-0.17-0.24-0.3-0.55-0.41-0.93c-0.1-0.38-0.19-1.12-0.25-2.21l-0.3-4.66c-0.12-1.83-1.02-3.05-2.71-3.67
			c-0.96-0.34-2.48-0.51-4.54-0.51h-11.49V738h-5.05V710.06z M885.98,722.86c2.37,0,4.24-0.35,5.62-1.06s2.07-1.99,2.07-3.84
			c0-1.99-0.96-3.35-2.89-4.07c-1.03-0.38-2.41-0.57-4.13-0.57h-12.32v9.55H885.98z"/>
		<path fill="#FFFFFF" stroke="#FFFFFF" stroke-miterlimit="10" d="M906.65,710.06h27.16v3.42h-22.24v8.48h20.56v3.23h-20.56v9.47
			h22.62V738h-27.54V710.06z"/>
		<path fill="#FFFFFF" stroke="#FFFFFF" stroke-miterlimit="10" d="M951.63,710.06h5.71L970.85,738h-5.53l-3.78-8.37h-14.73
			l-4.03,8.37h-5.17L951.63,710.06z M959.92,726.55l-5.66-12.34l-6.01,12.34H959.92z"/>
		<path fill="#FFFFFF" stroke="#FFFFFF" stroke-miterlimit="10" d="M998.72,710.06v3.33h-12.55V738h-5.12v-24.61h-12.55v-3.33
			H998.72z"/>
		<path fill="#FFFFFF" stroke="#FFFFFF" stroke-miterlimit="10" d="M1033.1,714.06c2.47,2.47,3.7,5.64,3.7,9.49
			c0,4.17-1.41,7.64-4.23,10.4c-3.31,3.25-8.04,4.87-14.17,4.87c-5.73,0-10.24-1.42-13.52-4.26c-2.92-2.74-4.39-6.2-4.39-10.38
			c0-3.78,1.25-7.01,3.75-9.7c3.21-3.45,7.96-5.17,14.25-5.17C1025.07,709.3,1029.94,710.89,1033.1,714.06z M1028.65,731.85
			c1.99-2.39,2.98-5.14,2.98-8.24c0-3.28-1.15-5.93-3.44-7.93c-2.29-2-5.42-3-9.4-3c-3.85,0-7,0.99-9.43,2.98s-3.65,4.91-3.65,8.78
			c0,3.09,1.04,5.7,3.13,7.83c2.09,2.12,5.47,3.19,10.16,3.19C1023.45,735.43,1026.67,734.24,1028.65,731.85z"/>
		<path fill="#FFFFFF" stroke="#FFFFFF" stroke-miterlimit="10" d="M1043.42,710.06h17.24c2.84,0,5.18,0.31,7.02,0.93
			c3.5,1.19,5.25,3.39,5.25,6.6c0,1.67-0.46,3.04-1.38,4.11c-0.92,1.07-2.21,1.92-3.87,2.57c1.45,0.44,2.55,1.03,3.28,1.75
			s1.15,1.9,1.23,3.52l0.18,3.75c0.05,1.06,0.17,1.86,0.36,2.38c0.3,0.89,0.84,1.46,1.62,1.71V738h-6.19
			c-0.17-0.24-0.3-0.55-0.41-0.93c-0.1-0.38-0.19-1.12-0.25-2.21l-0.3-4.66c-0.12-1.83-1.02-3.05-2.71-3.67
			c-0.96-0.34-2.48-0.51-4.54-0.51h-11.49V738h-5.05V710.06z M1060.13,722.86c2.37,0,4.24-0.35,5.62-1.06s2.07-1.99,2.07-3.84
			c0-1.99-0.96-3.35-2.89-4.07c-1.03-0.38-2.41-0.57-4.13-0.57h-12.32v9.55H1060.13z"/>
		<path fill="#FFFFFF" stroke="#FFFFFF" stroke-miterlimit="10" d="M1083.61,728.99c0.12,1.58,0.62,2.87,1.5,3.86
			c1.67,1.85,4.62,2.78,8.85,2.78c1.89,0,3.62-0.2,5.17-0.61c3.01-0.79,4.51-2.19,4.51-4.22c0-1.52-0.63-2.61-1.9-3.25
			c-1.29-0.63-3.3-1.19-6.04-1.66l-5.05-0.86c-3.3-0.56-5.63-1.17-7-1.84c-2.37-1.17-3.55-2.91-3.55-5.23
			c0-2.51,1.16-4.57,3.47-6.18c2.32-1.61,5.6-2.42,9.84-2.42c3.91,0,7.22,0.71,9.95,2.12c2.73,1.41,4.1,3.67,4.1,6.78h-4.74
			c-0.25-1.5-0.79-2.64-1.62-3.44c-1.54-1.46-4.15-2.19-7.83-2.19c-2.98,0-5.11,0.47-6.42,1.41c-1.3,0.94-1.95,2.03-1.95,3.27
			c0,1.37,0.76,2.37,2.28,3c1,0.41,3.25,0.91,6.77,1.52l5.22,0.89c2.52,0.43,4.46,1.02,5.83,1.77c2.37,1.31,3.55,3.2,3.55,5.69
			c0,3.09-1.5,5.31-4.5,6.64c-3,1.33-6.49,2-10.46,2c-4.63,0-8.26-0.89-10.88-2.66c-2.62-1.76-3.9-4.15-3.85-7.17H1083.61z"/>
	</g>
</g>
<g>
	<g>
		<path fill="#FFFFFF" stroke="#FFFFFF" stroke-width="3.3177" stroke-miterlimit="10" d="M272.61,537.45
			c-2.04-4.94-4.79-9.58-8.08-13.83c-2.38-3.07-7.15-2.69-8.91,0.78c-0.01,0.02-0.02,0.04-0.03,0.07c-0.17,0.33-0.33,0.66-0.48,1
			c-0.84,1.79-0.59,3.91,0.64,5.47c3.6,4.59,6.43,9.74,7.89,15.44c2.62,10.22-0.08,21.35-4.81,30.7c-1.88,3.72-4.04,7.21-6.42,10.53
			c-1.09,1.52-1.4,3.46-0.76,5.21c0.02,0.06,0.05,0.12,0.07,0.18c1.55,4.23,7.26,4.94,9.87,1.27
			C273.41,577.69,280.69,557.02,272.61,537.45z M253.31,674.34c-6.19-16.97-18.64-30.2-32.22-41.68c3.35-2.67,6.72-5.33,10.05-8.02
			c2.13-1.72,2.71-4.73,1.35-7.12l-0.06-0.1c-1.71-3-5.69-3.76-8.37-1.59c-3.97,3.21-7.99,6.36-11.94,9.52
			c-9.8-7.83-19.79-15.49-28.73-24.31c-14.99-14.81-29.6-37.22-21.48-58.86c3.51-9.35,11.07-17.55,19.17-23.21
			c9.15-6.41,19.91-10.44,31.13-10.63c4.77,0.08,9.52,0.87,14.1,2.25c2.51,0.76,5.19-0.35,6.49-2.63c0.02-0.03,0.04-0.07,0.06-0.1
			c1.77-3.1,0.18-7.06-3.24-8.1c-5.51-1.67-11.2-2.64-16.89-2.79c-0.18-0.01-0.35-0.01-0.53-0.01c-0.17,0-0.35,0-0.52,0.01
			c-14.62,0.37-28.6,5.96-40.05,14.93c-9.52,7.46-17.53,17.38-21.3,28.98c-4.05,12.43-1.85,25.8,3.21,37.58
			c9.99,23.26,30.36,38.79,49.6,54.18c-6.62,5.56-12.93,11.48-18.4,18.19c-12.91,15.81-21.15,36.44-16.01,56.96
			c4.91,19.58,23.23,33.43,43.32,33.43h0.12c11.12,0,21.85-4.25,30.18-11.56C257.94,715.97,260.11,692.99,253.31,674.34z
			 M245.02,702.59c-1.55,7.94-5.46,14.92-11.8,19.95c-6,4.75-13.59,7.3-21.06,7.3h-0.1c-8.41,0-16.92-3.26-23.19-9.19
			c-12.29-11.62-12.39-30.21-6.29-45.09c5.93-14.46,17.57-25.77,29.53-35.66c6.15,5.11,12.06,10.52,17.31,16.56
			C240.25,668.92,248.29,685.86,245.02,702.59z"/>
	</g>
	<g>
		<path fill="#FFFFFF" stroke="#FFFFFF" stroke-width="3.3177" stroke-miterlimit="10" d="M378.49,587.6
			c-2.38-3.32-4.55-6.81-6.42-10.53c-4.73-9.35-7.43-20.48-4.81-30.7c1.46-5.7,4.29-10.85,7.89-15.44c1.23-1.56,1.48-3.68,0.64-5.47
			c-0.16-0.34-0.32-0.67-0.48-1c-0.01-0.02-0.02-0.05-0.03-0.07c-1.75-3.46-6.53-3.84-8.91-0.78c-3.29,4.24-6.03,8.88-8.08,13.83
			c-8.08,19.57-0.8,40.24,11.02,56.82c2.62,3.67,8.32,2.96,9.87-1.27c0.02-0.06,0.04-0.12,0.07-0.18
			C379.89,591.06,379.57,589.12,378.49,587.6z M477.37,578.46c5.06-11.77,7.26-25.14,3.21-37.58c-3.78-11.6-11.78-21.53-21.3-28.98
			c-11.45-8.97-25.44-14.56-40.05-14.93c-0.17-0.01-0.35-0.01-0.52-0.01c-0.18,0-0.35,0-0.53,0.01c-5.69,0.15-11.37,1.11-16.89,2.79
			c-3.41,1.04-5.01,5-3.24,8.1c0.02,0.03,0.04,0.07,0.06,0.1c1.3,2.28,3.98,3.39,6.49,2.63c4.58-1.38,9.33-2.17,14.1-2.25
			c11.22,0.19,21.99,4.22,31.13,10.63c8.1,5.66,15.66,13.87,19.17,23.21c8.11,21.64-6.5,44.05-21.48,58.86
			c-8.94,8.83-18.93,16.48-28.73,24.31c-3.95-3.16-7.97-6.3-11.94-9.52c-2.68-2.17-6.66-1.41-8.37,1.59l-0.06,0.1
			c-1.36,2.38-0.78,5.4,1.35,7.12c3.33,2.69,6.7,5.35,10.05,8.02c-13.58,11.48-26.04,24.72-32.22,41.68
			c-6.8,18.65-4.64,41.63,10.96,55.32c8.33,7.31,19.06,11.56,30.18,11.56h0.12c20.1,0,38.42-13.84,43.32-33.43
			c5.14-20.52-3.1-41.15-16.01-56.96c-5.47-6.7-11.79-12.63-18.4-18.19C447,617.25,467.38,601.72,477.37,578.46z M448.33,675.56
			c6.1,14.88,6,33.48-6.29,45.09c-6.28,5.93-14.78,9.19-23.19,9.19h-0.1c-7.47,0-15.07-2.55-21.06-7.3
			c-6.34-5.03-10.25-12.01-11.8-19.95c-3.27-16.73,4.77-33.67,15.6-46.12c5.26-6.04,11.17-11.45,17.31-16.56
			C430.76,649.79,442.4,661.1,448.33,675.56z"/>
	</g>
	<path fill="#FFFFFF" stroke="#FFFFFF" stroke-width="3.7659" stroke-miterlimit="10" d="M401.49,547.65
		c-1.31-9.38-3.19-19.06-6.82-27.85c-6.44-15.63-17.87-28.42-31.68-37.99c-13.76-9.53-30.67-16.25-47.57-16.27
		c-14.62-0.24-29.28,5.27-41.67,12.7c-13.96,8.37-26.46,20.17-34.2,34.6c-4.4,8.2-6.82,17.1-8.64,26.19
		c-2.02,10.13-3.19,20.53-2.76,30.87c0.86,20.92,8.28,40.54,21.74,56.6c13.65,16.3,31.48,28.37,47.89,41.64
		c0.2,0.16,0.4,0.3,0.61,0.44c0.18,0.16,0.36,0.31,0.55,0.45c2.39,1.8,4.81,3.6,7.24,5.43c-15.86,12.56-30.78,26.53-39.78,44.74
		c-6.01,12.16-9.6,26-8.37,39.63c1.24,13.74,7.08,26.45,17.1,36.01c10.76,10.28,25.37,16.82,40.35,16.69
		c26.84,0.24,52.29-20.59,56.73-47.15c2.29-13.74-0.06-27.6-5.46-40.35c-5.52-13.03-14.37-24.34-24.41-34.21
		c-5.55-5.46-11.48-10.49-17.57-15.33c2.42-1.82,4.83-3.63,7.25-5.45c0.18-0.14,0.36-0.29,0.54-0.44c0.21-0.14,0.42-0.29,0.62-0.45
		c14.5-11.73,29.94-22.47,42.86-36.03c14.29-15,23.45-33.21,26.05-53.83C403.37,568.07,402.91,557.82,401.49,547.65z M353.32,722.24
		c10.95,20.23,12.6,46.29-4.52,63.52c-8.84,8.9-21.01,14.47-33.32,14.36c-22.05,0.2-42.77-17.39-45.86-39.46
		c-3.46-24.76,11.1-47.44,28.21-63.92c5.61-5.4,11.57-10.37,17.69-15.17C330.28,693.08,344.39,705.75,353.32,722.24z M391.26,572.29
		c-1.18,18.15-8.39,35.13-20.47,48.69c-13.25,14.87-29.76,26.26-45.18,38.68c-3.35,2.52-6.74,5.05-10.14,7.62
		c-3.37-2.55-6.74-5.07-10.11-7.6c-13.88-11.19-28.54-21.5-41.05-34.27c-12.87-13.13-21.64-29.12-24.1-47.5
		c-1.22-9.12-0.95-18.55,0.29-27.65c1.23-9.04,3.04-18.58,6.61-27.02c5.37-12.7,16.08-24.27,27.62-32.13
		c6.74-4.59,13.85-8.25,20.91-10.67c3.42-1.18,6.92-2.13,10.48-2.79c0.44-0.08,0.87-0.16,1.31-0.23c0.07-0.01,0.45-0.07,0.73-0.11
		c0.28-0.04,0.82-0.1,0.84-0.1c0.42-0.05,0.84-0.09,1.27-0.12c1.71-0.15,3.43-0.2,5.15-0.18c1.56,0,3.13,0.06,4.69,0.19
		c0.72,0.06,1.43,0.14,2.14,0.21c0.05,0,0.15,0.02,0.26,0.03c0.5,0.08,0.99,0.15,1.48,0.23c3.29,0.56,6.54,1.36,9.73,2.36
		c6.82,2.13,12.58,4.82,18.99,8.74c12.35,7.55,22.95,17.99,29.55,31.1c3.6,7.15,5.64,15.95,7.19,24.31
		C391.15,553.38,391.87,562.87,391.26,572.29z"/>
</g>
<g>
</g>
<g>
</g>
<g>
</g>
<g>
</g>
<g>
</g>
<g>
</g>
<g>
</g>
<g>
</g>
<g>
</g>
<g>
</g>
<g>
</g>
<g>
</g>
<g>
</g>
<g>
</g>
<g>
</g>
</svg>
